<svg xmlns="http://www.w3.org/2000/svg" viewBox="0 0 100 100" fill="currentColor"><path d="M66.9 2.5c-3.9 0-7.2 2.6-8.2 6.3-1-3.7-4.3-6.3-8.2-6.3-4.8 0-8.8 3.9-8.8 8.8v.1c0 2.2 1.3 4.2 3.1 5.3 1.9 1.1 4.5 1.7 7.3 1.7h13.1c2.8 0 5.4-.6 7.3-1.7 1.9-1.1 3.1-3.1 3.1-5.3v-.1c.1-4.9-3.8-8.8-8.7-8.8zM50.4 39.3c-2.3 0-4.2-1.9-4.2-4.2 0-2.3 1.9-4.2 4.2-4.2 2.3 0 4.2 1.9 4.2 4.2.1 2.3-1.8 4.2-4.2 4.2z"></path><path d="M89.3 22.5c-1.2-1.3-2.8-2-4.4-2H15.1c-1.6 0-3.2.7-4.4 2-1.2 1.3-1.9 2.9-1.9 4.6v37.2c0 1.7.7 3.4 1.9 4.6 1.2 1.3 2.8 2 4.4 2h7.3c.7 0 1.4-.3 1.9-.8s.8-1.2.8-1.9v-2.1c0-1.8 1.5-3.3 3.3-3.3h43.9c1.8 0 3.3 1.5 3.3 3.3v2.1c0 .7.3 1.4.8 1.9s1.2.8 1.9.8h7.3c1.6 0 3.2-.7 4.4-2 1.2-1.3 1.9-2.9 1.9-4.6V27.1c0-1.7-.7-3.3-1.9-4.6zm-17 40.5H27.7c-.9 0-1.7-.7-1.7-1.7V37.5c0-.9.7-1.7 1.7-1.7h44.6c.9 0 1.7.7 1.7 1.7v23.8c0 .9-.8 1.7-1.7 1.7z"></path><path d="M21.5 87.5h57v-9.6H21.5zm19.6 18.2c-2.2 0-4-1.8-4-4s1.8-4 4-4 4 1.8 4 4-1.8 4-4 4zm-14.7-6.2H12.2c-1.8 0-3.3-1.5-3.3-3.3v-2.1c0-.7-.3-1.4-.8-1.9s-1.2-.8-1.9-.8H.7v14.4h25.9c.7 0 1.4-.3 1.9-.8.5-.5.8-1.2.8-1.9v-2.1c0-.5-.4-.9-.9-.9zm56.1-.9v2.1c0 .7.3 1.4.8 1.9.5.5 1.2.8 1.9.8H100V81.4h-5.5c-.7 0-1.4.3-1.9.8-.5-.5-.8 1.2-.8 1.9v2.1c0 1.8-1.5 3.3-3.3 3.3z"></path></svg>