<?xml version="1.0" encoding="UTF-8"?>
<svg version="1.1" xmlns="http://www.w3.org/2000/svg" width="1536" height="1024">
<path d="M0 0 C506.88 0 1013.76 0 1536 0 C1536 337.92 1536 675.84 1536 1024 C1029.12 1024 522.24 1024 0 1024 C0 686.08 0 348.16 0 0 Z " fill="#003E87" transform="translate(0,0)"/>
<path d="M0 0 C1.4239785 -0.01441132 1.4239785 -0.01441132 2.87672424 -0.02911377 C4.43422646 -0.03548859 4.43422646 -0.03548859 6.02319336 -0.04199219 C7.62885414 -0.0505423 7.62885414 -0.0505423 9.26695251 -0.05926514 C11.5477499 -0.06874255 13.82856116 -0.07525992 16.109375 -0.07910156 C19.54640079 -0.08868145 22.98279577 -0.11962457 26.41967773 -0.15136719 C49.10947565 -0.26250663 71.33509962 2.01104911 88.72631836 18.18457031 C100.12434883 30.07630078 104.13590103 44.94025788 103.98803711 61.03613281 C103.98118896 62.18073975 103.97434082 63.32534668 103.96728516 64.50463867 C103.81108086 72.71443245 103.0656267 79.64531626 99.55053711 87.16113281 C99.19991211 87.95777344 98.84928711 88.75441406 98.48803711 89.57519531 C91.39978661 103.8993682 78.19376025 113.64898131 63.55053711 119.16113281 C53.23672464 122.13939102 43.33876821 123.31704063 32.65600586 123.32910156 C31.62743973 123.33242996 30.5988736 123.33575836 29.53913879 123.33918762 C27.376683 123.3442297 25.21421948 123.34659679 23.05175781 123.34643555 C19.73156192 123.34863711 16.41169059 123.36686244 13.09155273 123.38574219 C10.98803825 123.38867359 8.88452218 123.39066008 6.78100586 123.39160156 C5.28732735 123.40237984 5.28732735 123.40237984 3.76347351 123.41337585 C2.84524307 123.41029922 1.92701263 123.4072226 0.98095703 123.40405273 C-0.23313591 123.40619026 -0.23313591 123.40619026 -1.47175598 123.40837097 C-3.44946289 123.16113281 -3.44946289 123.16113281 -5.44946289 121.16113281 C-5.69835186 119.04374599 -5.69835186 119.04374599 -5.69670105 116.37168884 C-5.70089554 115.36068619 -5.70509003 114.34968353 -5.70941162 113.30804443 C-5.70379211 112.19471741 -5.69817261 111.08139038 -5.69238281 109.93432617 C-5.69428116 108.76521194 -5.6961795 107.59609772 -5.69813538 106.39155579 C-5.70121104 103.18090309 -5.69532086 99.97041907 -5.68518233 96.75978541 C-5.6764135 93.40500843 -5.67815904 90.05023594 -5.67854309 86.69544983 C-5.67760602 81.06216098 -5.66891571 75.42892595 -5.65527344 69.7956543 C-5.63953984 63.27455127 -5.63427557 56.75350717 -5.63500899 50.23238653 C-5.63561846 43.96824061 -5.63052092 37.70411397 -5.62221718 31.43997383 C-5.61867866 28.76972872 -5.61685312 26.09949043 -5.61632347 23.42924309 C-5.6141675 19.70564646 -5.60543966 15.98212544 -5.59472656 12.25854492 C-5.59517975 11.14319366 -5.59563293 10.02784241 -5.59609985 8.87869263 C-5.58970238 7.36641838 -5.58970238 7.36641838 -5.58317566 5.82359314 C-5.58149981 4.94219131 -5.57982397 4.06078947 -5.57809734 3.15267849 C-5.33411383 -0.6247256 -3.29416049 0.02684827 0 0 Z " fill="#FDFDFE" transform="translate(733.449462890625,327.8388671875)"/>
<path d="M0 0 C1.14241653 -0.00960754 2.28483307 -0.01921509 3.46186829 -0.02911377 C4.70961533 -0.03336365 5.95736237 -0.03761353 7.24291992 -0.04199219 C8.52261154 -0.04769226 9.80230316 -0.05339233 11.12077332 -0.05926514 C13.84207557 -0.06979522 16.56334819 -0.07562208 19.28466797 -0.07910156 C22.73968521 -0.08453556 26.19429811 -0.1084432 29.64918995 -0.13707352 C32.97209033 -0.16043415 36.29494187 -0.1621678 39.61791992 -0.16699219 C40.84340042 -0.17933899 42.06888092 -0.19168579 43.33149719 -0.20440674 C55.00847772 -0.17463522 66.3848976 1.53567396 75.66088867 9.16113281 C82.57887125 17.16991762 84.12436489 24.97764789 83.98120117 35.38769531 C83.36352743 42.6641933 80.78010624 48.8767792 75.66088867 54.16113281 C74.67088867 54.82113281 73.68088867 55.48113281 72.66088867 56.16113281 C72.66088867 56.82113281 72.66088867 57.48113281 72.66088867 58.16113281 C73.82718319 59.22974277 75.04594799 60.24143261 76.28588867 61.22363281 C82.52633221 66.5457132 87.31236933 72.93516484 88.66088867 81.16113281 C89.47670444 91.47355395 88.88773597 100.39205745 82.63745117 108.92285156 C73.76953784 119.28892773 64.78740244 122.36616682 51.14782715 123.43692017 C47.58096151 123.53641218 44.02588344 123.55152703 40.45776367 123.52441406 C38.53024261 123.52516182 38.53024261 123.52516182 36.56378174 123.52592468 C33.87809081 123.52583608 31.19270714 123.51562326 28.50708008 123.49731445 C25.06383184 123.47435329 21.62101953 123.47414419 18.1777153 123.4808321 C14.87519824 123.48496243 11.57275947 123.47302615 8.27026367 123.46191406 C7.03395203 123.46282547 5.79764038 123.46373688 4.52386475 123.4646759 C3.38797913 123.45514389 2.25209351 123.44561188 1.08178711 123.43579102 C0.08032654 123.43118362 -0.92113403 123.42657623 -1.95294189 123.42182922 C-4.33911133 123.16113281 -4.33911133 123.16113281 -6.33911133 121.16113281 C-6.5880003 119.04374599 -6.5880003 119.04374599 -6.58634949 116.37168884 C-6.59054398 115.36068619 -6.59473846 114.34968353 -6.59906006 113.30804443 C-6.59344055 112.19471741 -6.58782104 111.08139038 -6.58203125 109.93432617 C-6.5839296 108.76521194 -6.58582794 107.59609772 -6.58778381 106.39155579 C-6.59085948 103.18090309 -6.58496929 99.97041907 -6.57483077 96.75978541 C-6.56606194 93.40500843 -6.56780748 90.05023594 -6.56819153 86.69544983 C-6.56725446 81.06216098 -6.55856415 75.42892595 -6.54492188 69.7956543 C-6.52918828 63.27455127 -6.52392401 56.75350717 -6.52465743 50.23238653 C-6.5252669 43.96824061 -6.52016936 37.70411397 -6.51186562 31.43997383 C-6.5083271 28.76972872 -6.50650156 26.09949043 -6.50597191 23.42924309 C-6.50381594 19.70564646 -6.4950881 15.98212544 -6.484375 12.25854492 C-6.48482819 11.14319366 -6.48528137 10.02784241 -6.48574829 8.87869263 C-6.47935081 7.36641838 -6.47935081 7.36641838 -6.4728241 5.82359314 C-6.47114825 4.94219131 -6.46947241 4.06078947 -6.46774578 3.15267849 C-6.20449471 -0.92303004 -3.47592212 0.02350529 0 0 Z " fill="#FDFDFE" transform="translate(334.339111328125,327.8388671875)"/>
<path d="M0 0 C0.97249191 -0.00953201 1.94498383 -0.01906403 2.94694519 -0.02888489 C4.53422173 -0.02751778 4.53422173 -0.02751778 6.15356445 -0.02612305 C7.24715775 -0.03040817 8.34075104 -0.0346933 9.46748352 -0.03910828 C11.79358224 -0.04486515 14.11969896 -0.04534191 16.44580078 -0.04101562 C19.95743983 -0.03789459 23.468204 -0.06116122 26.97973633 -0.08666992 C61.78053349 -0.1871987 61.78053349 -0.1871987 74.6418457 11.34887695 C83.89003666 21.09007809 85.74205096 31.01069376 85.5402832 44.0012207 C85.19202156 53.8428368 81.47731851 62.26107022 74.3840332 69.16918945 C72.74184805 70.58864909 71.04089303 71.93965129 69.3293457 73.2746582 C69.9787349 77.60956191 71.55083792 81.32085115 73.3840332 85.26293945 C73.68624786 85.92496872 73.98846252 86.58699799 74.29983521 87.26908875 C75.26303618 89.37743073 76.23317665 91.48247615 77.2043457 93.5871582 C78.16747565 95.68151837 79.12899639 97.77658026 80.08743286 99.87309265 C80.68221743 101.17343915 81.27973806 102.47253928 81.88058472 103.77009583 C82.71786917 105.59657845 83.53131028 107.43069583 84.3293457 109.2746582 C84.62923401 109.96723724 84.92912231 110.65981628 85.23809814 111.37338257 C86.76184843 115.11159738 87.67560134 117.43043041 86.3293457 121.2746582 C85.3293457 122.2746582 85.3293457 122.2746582 82.73730469 122.38818359 C81.61138916 122.38294678 80.48547363 122.37770996 79.32543945 122.37231445 C77.50302734 122.36748047 77.50302734 122.36748047 75.64379883 122.36254883 C74.3644043 122.35416992 73.08500977 122.34579102 71.7668457 122.3371582 C70.48358398 122.33264648 69.20032227 122.32813477 67.87817383 122.32348633 C64.69518548 122.31165366 61.51228808 122.29516889 58.3293457 122.2746582 C54.13720873 114.38639589 50.73368476 106.23259681 47.39794922 97.95825195 C46.5064364 95.74886135 45.60677003 93.54291075 44.70629883 91.3371582 C44.13615586 89.93110336 43.56647677 88.5248603 42.99731445 87.1184082 C42.72864059 86.46014038 42.45996674 85.80187256 42.18315125 85.12365723 C40.3293457 80.50503051 40.3293457 80.50503051 40.3293457 78.2746582 C34.3893457 78.2746582 28.4493457 78.2746582 22.3293457 78.2746582 C22.33720093 80.22069946 22.33720093 80.22069946 22.34521484 82.20605469 C22.3632604 87.00113236 22.37477607 91.796207 22.38427734 96.59130859 C22.38931859 98.67008976 22.39615145 100.74886737 22.40478516 102.82763672 C22.41685993 105.80868406 22.42257594 108.7896847 22.42700195 111.77075195 C22.43216324 112.70616318 22.43732452 113.6415744 22.44264221 114.60533142 C22.44275551 115.89655663 22.44275551 115.89655663 22.44287109 117.21386719 C22.44509171 117.97553696 22.44731232 118.73720673 22.44960022 119.5219574 C22.3293457 121.2746582 22.3293457 121.2746582 21.3293457 122.2746582 C19.34177543 122.37448878 17.35067051 122.40546573 15.3605957 122.4074707 C14.15016602 122.40875977 12.93973633 122.41004883 11.69262695 122.41137695 C10.41774414 122.40750977 9.14286133 122.40364258 7.8293457 122.3996582 C6.55446289 122.40352539 5.27958008 122.40739258 3.96606445 122.41137695 C2.75563477 122.41008789 1.54520508 122.40879883 0.2980957 122.4074707 C-0.82145508 122.40634277 -1.94100586 122.40521484 -3.09448242 122.40405273 C-5.6706543 122.2746582 -5.6706543 122.2746582 -6.6706543 121.2746582 C-6.77083693 119.73577269 -6.80141019 118.19230196 -6.80436707 116.65016174 C-6.80863205 115.65039307 -6.81289703 114.65062439 -6.81729126 113.62055969 C-6.81683807 112.51455917 -6.81638489 111.40855865 -6.81591797 110.26904297 C-6.81927658 109.11143463 -6.82263519 107.95382629 -6.82609558 106.76113892 C-6.83563884 102.91277002 -6.83755036 99.06444447 -6.83862305 95.21606445 C-6.84102264 93.22637243 -6.84342372 91.2366804 -6.84608346 89.24698871 C-6.85423541 82.98692154 -6.85666703 76.72686875 -6.85595703 70.46679688 C-6.85535607 64.00081316 -6.86590976 57.53491284 -6.88170069 51.06895024 C-6.89475942 45.52499165 -6.90014163 39.98106038 -6.89950162 34.43708652 C-6.89924613 31.12264607 -6.90303674 27.80829665 -6.91267967 24.49386787 C-6.92242261 20.79906319 -6.91962413 17.10447578 -6.91357422 13.40966797 C-6.91919373 12.30569168 -6.92481323 11.20171539 -6.93060303 10.06428528 C-6.92640854 9.06169678 -6.92221405 8.05910828 -6.91789246 7.02613831 C-6.91843722 6.15173379 -6.91898199 5.27732927 -6.91954327 4.37642765 C-6.40028212 -0.00852849 -3.76336291 0.02024848 0 0 Z " fill="#FBFCFD" transform="translate(577.670654296875,480.725341796875)"/>
<path d="M0 0 C0.98548828 -0.04962891 1.97097656 -0.09925781 2.98632812 -0.15039062 C9.91797669 -0.24815061 9.91797669 -0.24815061 12.87475586 1.63989258 C14.56187764 3.49818452 15.84140845 5.44099549 17.1875 7.5625 C18.24843872 9.10756226 18.24843872 9.10756226 19.33081055 10.68383789 C21.5019064 13.85033122 23.6218912 17.04830695 25.73135376 20.25610352 C28.13654502 23.91295069 30.55772585 27.55920195 32.9765625 31.20703125 C33.47857681 31.96501007 33.98059113 32.72298889 34.49781799 33.50393677 C39.77261837 41.4616201 45.10830969 49.37780774 50.45877075 57.28475952 C51.48560921 58.80229595 52.51187555 60.32021967 53.53756714 61.83853149 C54.96783651 63.95568184 56.39963673 66.07178706 57.83203125 68.1875 C58.47421097 69.13824654 58.47421097 69.13824654 59.12936401 70.10820007 C60.98927306 72.96990154 60.98927306 72.96990154 63.1875 75.5625 C63.19558685 74.66714035 63.20367371 73.7717807 63.21200562 72.84928894 C63.28989622 64.41774785 63.37717007 55.98636763 63.47502708 47.55503368 C63.52500612 43.22023415 63.57133595 38.88545917 63.609375 34.55053711 C63.64620761 30.36831033 63.69256189 26.18628825 63.74556351 22.00423622 C63.76411826 20.40745949 63.77922223 18.81063886 63.79084396 17.21379662 C63.80768813 14.97980086 63.83671794 12.746275 63.86865234 10.51245117 C63.88197601 9.24004074 63.89529968 7.96763031 63.9090271 6.65666199 C64.1875 3.5625 64.1875 3.5625 66.1875 0.5625 C68.60180664 0.20605469 68.60180664 0.20605469 71.59765625 0.234375 C73.20543945 0.24210937 73.20543945 0.24210937 74.84570312 0.25 C76.53083008 0.2809375 76.53083008 0.2809375 78.25 0.3125 C79.94092773 0.32023437 79.94092773 0.32023437 81.66601562 0.328125 C90.0337291 0.4087291 90.0337291 0.4087291 91.1875 1.5625 C91.28561135 3.14172729 91.31381892 4.72534533 91.31448364 6.30761719 C91.31871338 7.84730164 91.31871338 7.84730164 91.32302856 9.41809082 C91.31999222 11.12152649 91.31999222 11.12152649 91.31689453 12.859375 C91.31952301 14.64208801 91.31952301 14.64208801 91.32220459 16.46081543 C91.3258627 19.72932776 91.32498972 22.99779989 91.3218255 26.26631165 C91.31930147 29.67982063 91.32163956 33.09332685 91.32321167 36.50683594 C91.32503324 42.24023931 91.32262739 47.97362983 91.31787109 53.70703125 C91.31242849 60.34455776 91.31419116 66.98205355 91.3196975 73.61957932 C91.32422899 79.30874266 91.324879 84.99789674 91.32225883 90.68706131 C91.32069626 94.0891902 91.32050175 97.49130464 91.32379532 100.89343262 C91.32632009 104.68418488 91.32248371 108.47487723 91.31689453 112.265625 C91.31891876 113.40124878 91.32094299 114.53687256 91.32302856 115.70690918 C91.32020874 116.73336548 91.31738892 117.75982178 91.31448364 118.81738281 C91.3139181 120.16355682 91.3139181 120.16355682 91.31334114 121.53692627 C91.1875 123.5625 91.1875 123.5625 90.1875 124.5625 C69.27577655 127.70220199 69.27577655 127.70220199 62.10791016 123.27929688 C58.89676693 119.96647896 57.13393799 116.06498803 55.31274414 111.87963867 C53.16999047 107.46721188 50.26996186 103.51967623 47.5 99.48284912 C45.45394483 96.48921845 43.43482461 93.47755823 41.41186523 90.46829224 C39.05273634 86.96024501 36.68778812 83.45613678 34.32299805 79.9519043 C32.49240298 77.2387403 30.66318671 74.52464998 28.83398438 71.81054688 C27.65633456 70.06504712 26.47860306 68.31960246 25.30078125 66.57421875 C24.76109207 65.77304123 24.22140289 64.97186371 23.6653595 64.14640808 C20.57295586 59.56775921 17.41935803 55.04388562 14.1875 50.5625 C14.17719254 51.47482895 14.16688507 52.3871579 14.15626526 53.32713318 C14.05846739 61.90640004 13.95597872 70.48559507 13.84816074 79.06474209 C13.79289168 83.475834 13.73946546 87.88693249 13.69018555 92.2980957 C13.64260055 96.55156987 13.59026014 100.80496089 13.53455925 105.05833626 C13.51410902 106.68469243 13.49540044 108.31107142 13.47842598 109.93746758 C13.45444073 112.20766363 13.42437865 114.47770113 13.39282227 116.74780273 C13.37727798 118.04241928 13.3617337 119.33703583 13.34571838 120.67088318 C13.1875 123.5625 13.1875 123.5625 12.1875 124.5625 C10.33380389 124.64987645 8.47682459 124.66948153 6.62109375 124.66015625 C5.49638672 124.65693359 4.37167969 124.65371094 3.21289062 124.65039062 C2.02888672 124.64201172 0.84488281 124.63363281 -0.375 124.625 C-1.56287109 124.62048828 -2.75074219 124.61597656 -3.97460938 124.61132812 C-6.92062226 124.59949675 -9.86653681 124.58301287 -12.8125 124.5625 C-14.03730809 122.11288381 -13.94368709 120.51914443 -13.95294189 117.77978516 C-13.96150711 116.26544891 -13.96150711 116.26544891 -13.97024536 114.72052002 C-13.97136322 113.60876404 -13.97248108 112.49700806 -13.97363281 111.3515625 C-13.97859772 110.18405457 -13.98356262 109.01654663 -13.98867798 107.81365967 C-14.00079704 104.6071286 -14.00824707 101.40063401 -14.01268864 98.19408417 C-14.01660186 95.51995612 -14.02275735 92.84583346 -14.0285995 90.17170906 C-14.04041374 84.58527226 -14.04794929 78.99884541 -14.0513947 73.41239738 C-14.05588004 66.1790505 -14.07345036 58.94589215 -14.1023953 51.71260262 C-14.12397725 46.12616142 -14.13409705 40.53977341 -14.13543582 34.95329094 C-14.13648605 31.61424239 -14.14244023 28.27533556 -14.16025543 24.93634033 C-14.17721231 21.21522516 -14.17546124 17.49457506 -14.16894531 13.7734375 C-14.1781601 12.66168152 -14.18737488 11.54992554 -14.1968689 10.40447998 C-14.18851517 8.89014374 -14.18851517 8.89014374 -14.17999268 7.34521484 C-14.18145924 6.4647348 -14.1829258 5.58425476 -14.1844368 4.67709351 C-14.06169765 3.97927765 -13.93895851 3.28146179 -13.8125 2.5625 C-9.38155839 -0.39146107 -5.21797702 0.0775782 0 0 Z " fill="#FDFDFE" transform="translate(929.8125,326.4375)"/>
<path d="M0 0 C3.95827235 -0.05785647 7.9164367 -0.09354717 11.875 -0.125 C13.00292969 -0.14175781 14.13085938 -0.15851562 15.29296875 -0.17578125 C16.36933594 -0.18222656 17.44570313 -0.18867187 18.5546875 -0.1953125 C19.54968262 -0.20578613 20.54467773 -0.21625977 21.56982422 -0.22705078 C24 0 24 0 26 2 C26.68261719 4.38858032 26.68261719 4.38858032 27.296875 7.42431641 C27.53051758 8.55954742 27.76416016 9.69477844 28.00488281 10.8644104 C28.25077148 12.09767059 28.49666016 13.33093079 28.75 14.6015625 C29.14546102 16.53557555 29.54092336 18.46958834 29.9364624 20.40358543 C30.49012235 23.12066404 31.03671795 25.83914677 31.58349609 28.55761719 C32.53682707 33.28962581 33.50166467 38.01930236 34.46582031 42.74911499 C34.97817945 45.26618693 35.48805341 47.78376637 35.99511719 50.3019104 C37.19766321 56.24222857 38.46463983 62.13648124 40 68 C42.59567831 60.58264357 44.6060638 53.08299485 46.5390625 45.46875 C47.03750526 43.52543393 47.53595178 41.58211881 48.03462791 39.63886261 C49.07758209 35.57037628 50.11480428 31.50042508 51.152771 27.43066406 C52.01428309 24.0535446 52.87709045 20.67677003 53.74349976 17.30090332 C54.39106725 14.77657013 55.03553472 12.25143934 55.67666626 9.72546387 C55.96721893 8.59338501 56.25777161 7.46130615 56.55712891 6.29492188 C56.93993515 4.7934259 56.93993515 4.7934259 57.33047485 3.26159668 C58 1 58 1 59 0 C60.78071246 -0.08726223 62.5648314 -0.10699041 64.34765625 -0.09765625 C65.42724609 -0.09443359 66.50683594 -0.09121094 67.61914062 -0.08789062 C69.32360352 -0.07532227 69.32360352 -0.07532227 71.0625 -0.0625 C72.77276367 -0.05573242 72.77276367 -0.05573242 74.51757812 -0.04882812 C77.34510351 -0.03699747 80.1725264 -0.0205141 83 0 C85.68618717 6.58723535 87.32349658 13.18922464 88.84765625 20.12890625 C89.23370277 21.85160988 89.23370277 21.85160988 89.62754822 23.6091156 C90.44459972 27.25906296 91.25395238 30.91066031 92.0625 34.5625 C92.87589734 38.21760944 93.69094274 41.87233957 94.50816345 45.52659607 C95.01487756 47.79431607 95.5191939 50.06257358 96.02076721 52.33143616 C97.19601235 57.60923941 98.43704531 62.82308598 100 68 C101.72411336 64.89064699 102.56719355 61.98950408 103.296875 58.51635742 C103.53051758 57.41809128 103.76416016 56.31982513 104.00488281 55.1882782 C104.25077148 54.00595108 104.49666016 52.82362396 104.75 51.60546875 C105.0087793 50.38475174 105.26755859 49.16403473 105.53417969 47.90632629 C106.22112254 44.66296324 106.90358863 41.41872955 107.58349609 38.17388916 C108.53936539 33.61516024 109.50142622 29.05774165 110.46582031 24.50080872 C110.97837092 22.07731361 111.48825076 19.65325171 111.99511719 17.2285614 C115.2625202 1.7374798 115.2625202 1.7374798 117 0 C118.70772358 -0.08713831 120.41898649 -0.10700007 122.12890625 -0.09765625 C123.68061523 -0.09282227 123.68061523 -0.09282227 125.26367188 -0.08789062 C126.35228516 -0.07951172 127.44089844 -0.07113281 128.5625 -0.0625 C130.2012207 -0.05573242 130.2012207 -0.05573242 131.87304688 -0.04882812 C134.58208495 -0.03699826 137.29101599 -0.02051543 140 0 C140.27390268 5.73115698 139.3104651 10.47823177 137.75268555 15.97705078 C137.51366516 16.84786285 137.27464478 17.71867493 137.02838135 18.61587524 C136.24010645 21.47824831 135.43882487 24.33678718 134.63671875 27.1953125 C134.08282663 29.19099304 133.52951603 31.18683506 132.97676086 33.18283081 C131.8181555 37.35870733 130.65321804 41.5327495 129.48364258 45.70556641 C127.98610885 51.0500617 126.50335606 56.39852255 125.02517986 61.74839973 C123.88544078 65.86776623 122.73843893 69.98508262 121.5891819 74.10180283 C121.03967124 76.07316275 120.49228933 78.04511736 119.94708824 80.01767349 C119.18384031 82.77445991 118.41098397 85.52837322 117.63549805 88.28173828 C117.41251541 89.09433105 117.18953278 89.90692383 116.95979309 90.74414062 C115.78711302 94.86688444 114.61308474 98.52250575 112 102 C109.39624023 102.61523438 109.39624023 102.61523438 106.30859375 102.59375 C105.19935547 102.59117187 104.09011719 102.58859375 102.94726562 102.5859375 C101.78904297 102.55757812 100.63082031 102.52921875 99.4375 102.5 C98.27541016 102.50257813 97.11332031 102.50515625 95.91601562 102.5078125 C89.55625169 102.43381874 89.55625169 102.43381874 87 102 C85.14263222 99.21394833 84.53997039 97.71401368 83.81079102 94.55126953 C83.60039688 93.65248077 83.39000275 92.75369202 83.17323303 91.82766724 C82.95235519 90.85586517 82.73147736 89.88406311 82.50390625 88.8828125 C82.26969467 87.87467499 82.03548309 86.86653748 81.79417419 85.82785034 C81.04450286 82.59487226 80.30339293 79.35999986 79.5625 76.125 C79.06762033 73.98424476 78.57218372 71.8436182 78.07617188 69.703125 C77.12803729 65.60821394 76.18512037 61.51215965 75.24658203 57.41503906 C74.50573373 54.18447301 73.75584195 50.95667066 72.98388672 47.73339844 C72.70947754 46.58129883 72.43506836 45.42919922 72.15234375 44.2421875 C71.92409912 43.29972168 71.69585449 42.35725586 71.46069336 41.38623047 C71 39 71 39 71 35 C70.34 35 69.68 35 69 35 C68.89945313 36.2156665 68.79890625 37.43133301 68.6953125 38.68383789 C67.9946098 44.94690235 66.42499309 50.96023751 64.875 57.05859375 C64.56804199 58.28409439 64.26108398 59.50959503 63.94482422 60.77223206 C63.29865961 63.34718939 62.65035414 65.92147805 61.99804688 68.49487305 C61.16178228 71.79434867 60.33285102 75.09561118 59.50643921 78.3975668 C58.71543139 81.55611572 57.92022006 84.71360312 57.125 87.87109375 C56.82706543 89.05746933 56.52913086 90.24384491 56.22216797 91.46617126 C55.94518066 92.55813309 55.66819336 93.65009491 55.3828125 94.77514648 C55.13934082 95.7383934 54.89586914 96.70164032 54.64501953 97.69407654 C54 100 54 100 53 102 C44.42 102 35.84 102 27 102 C23.32556028 90.44183333 19.926593 78.83841664 16.69921875 67.1484375 C16.21313305 65.39205558 15.72703353 63.63567748 15.24092102 61.87930298 C14.23300359 58.23439457 13.22752012 54.58882417 12.22338867 50.94287109 C10.93821973 46.27853317 9.64333551 41.61694942 8.34627056 36.95590782 C7.34340319 33.34563893 6.34741224 29.73349926 5.35331154 26.12080765 C4.87860067 24.40016538 4.40135655 22.68021984 3.92148399 20.96100998 C3.25377712 18.56627456 2.59582845 16.16905809 1.94018555 13.77099609 C1.74232452 13.06964539 1.5444635 12.36829468 1.34060669 11.64569092 C0.26551685 7.66736855 -0.19858338 4.11755035 0 0 Z " fill="#FCFDFD" transform="translate(813,643)"/>
<path d="M0 0 C6.41734698 4.80525982 11.98152954 10.69808456 15.75 17.8125 C15.9375 21.125 15.9375 21.125 15.75 23.8125 C-0.03515365 31.98584043 -0.03515365 31.98584043 -5.25 30.8125 C-6.81782209 29.17280068 -8.17543639 27.4183383 -9.57421875 25.6328125 C-13.7446548 21.10268849 -19.9079895 19.11141883 -25.9140625 18.57421875 C-35.40482452 18.33632366 -42.53249847 19.94401611 -49.625 26.5 C-57.37798976 34.87949398 -58.44462503 44.00094302 -58.5 54.9375 C-58.520625 55.93265625 -58.54125 56.9278125 -58.5625 57.953125 C-58.6184286 68.6634515 -56.02327312 78.33131103 -49.25 86.8125 C-40.42481685 94.36599878 -31.41190368 94.63234908 -20.25 93.8125 C-14.79040145 92.81584845 -10.6990516 91.33194692 -7.25 86.8125 C-6.8009984 84.10697755 -6.55630366 81.77019409 -6.5 79.0625 C-6.47035156 78.36511719 -6.44070313 77.66773438 -6.41015625 76.94921875 C-6.33981542 75.23759187 -6.29260054 73.52504185 -6.25 71.8125 C-7.0020874 71.81773682 -7.7541748 71.82297363 -8.52905273 71.82836914 C-11.91519342 71.84907227 -15.30132084 71.86213877 -18.6875 71.875 C-19.87150391 71.88337891 -21.05550781 71.89175781 -22.27539062 71.90039062 C-23.40009766 71.90361328 -24.52480469 71.90683594 -25.68359375 71.91015625 C-27.24678345 71.91801147 -27.24678345 71.91801147 -28.84155273 71.92602539 C-31.25 71.8125 -31.25 71.8125 -32.25 70.8125 C-32.34880797 69.33597336 -32.38079245 67.85482764 -32.3828125 66.375 C-32.38474609 65.03308594 -32.38474609 65.03308594 -32.38671875 63.6640625 C-32.38285156 62.72304688 -32.37898438 61.78203125 -32.375 60.8125 C-32.38080078 59.40097656 -32.38080078 59.40097656 -32.38671875 57.9609375 C-32.38542969 57.06632812 -32.38414063 56.17171875 -32.3828125 55.25 C-32.38168457 54.42371094 -32.38055664 53.59742188 -32.37939453 52.74609375 C-32.25 50.8125 -32.25 50.8125 -31.25 49.8125 C-29.69567216 49.70362525 -28.13645854 49.66345667 -26.57836914 49.65136719 C-25.58386246 49.64175964 -24.58935577 49.6321521 -23.56471252 49.62225342 C-22.48245895 49.61800354 -21.40020538 49.61375366 -20.28515625 49.609375 C-19.1815123 49.60367493 -18.07786835 49.59797485 -16.94078064 49.59210205 C-14.60123661 49.58263603 -12.26167916 49.57611174 -9.92211914 49.57226562 C-6.33130825 49.56255088 -2.74106723 49.53153823 0.84960938 49.5 C3.11718408 49.49347135 5.3847629 49.48822034 7.65234375 49.484375 C8.73257309 49.4720282 9.81280243 49.4596814 10.92576599 49.44696045 C11.92342484 49.44996155 12.92108368 49.45296265 13.94897461 49.45605469 C14.82976181 49.45240906 15.71054901 49.44876343 16.61802673 49.44500732 C17.32157791 49.56627991 18.02512909 49.68755249 18.75 49.8125 C21.1410563 53.39908445 21.03990081 55.98016654 21.015625 60.12109375 C21.01753845 60.84305435 21.0194519 61.56501495 21.02142334 62.30885315 C21.02278463 63.84124092 21.01909208 65.37364024 21.01074219 66.90600586 C21.00018148 69.21040086 21.01056532 71.51399092 21.0234375 73.81835938 C21.05005062 96.43232308 21.05005062 96.43232308 15.375 103.625 C2.33876829 116.59076559 -15.05500586 120.10335435 -32.73339844 120.12939453 C-48.44977455 119.92008403 -60.56774155 113.93561864 -71.99609375 103.22265625 C-75.53199682 99.44162992 -77.9673797 95.43924833 -80.25 90.8125 C-80.70117188 89.90886719 -81.15234375 89.00523437 -81.6171875 88.07421875 C-89.97839334 69.79335745 -90.81315491 47.98209862 -84.0625 29.0625 C-77.96850364 14.42269533 -67.01995581 2.75493097 -52.34765625 -3.40625 C-35.46791096 -9.75031534 -15.4226423 -9.9875545 0 0 Z " fill="#FCFDFD" transform="translate(1130.25,333.1875)"/>
<path d="M0 0 C1.1653125 -0.00128906 2.330625 -0.00257813 3.53125 -0.00390625 C4.7584375 -0.00003906 5.985625 0.00382812 7.25 0.0078125 C9.09078125 0.00201172 9.09078125 0.00201172 10.96875 -0.00390625 C12.71671875 -0.00197266 12.71671875 -0.00197266 14.5 0 C15.57765625 0.00112793 16.6553125 0.00225586 17.765625 0.00341797 C20.25 0.1328125 20.25 0.1328125 21.25 1.1328125 C21.35381395 3.66602984 21.39361594 6.17286657 21.3918457 8.70678711 C21.39705734 9.89723129 21.39705734 9.89723129 21.40237427 11.11172485 C21.40974701 12.84252656 21.41508426 14.57333783 21.41866493 16.30415154 C21.42582008 19.05005952 21.4414831 21.79578772 21.46000671 24.54164124 C21.51249476 32.35170906 21.56037852 40.16168377 21.57592773 47.97192383 C21.58605532 52.74544673 21.61550994 57.51852529 21.65724754 62.29187202 C21.66950487 64.10615222 21.67468849 65.92049538 21.67244911 67.7348156 C21.34064905 83.34896087 21.34064905 83.34896087 28.625 96.6328125 C36.17312146 100.94602476 45.09704627 101.47680239 53.5390625 99.6328125 C57.69334742 98.02234081 60.63853766 95.68730291 63.25 92.1328125 C66.93831903 82.33614636 66.69078884 72.25815239 66.69140625 61.96875 C66.70320016 60.24190158 66.71656925 58.51506328 66.73143005 56.78823853 C66.76733608 52.28135929 66.78774407 47.77456995 66.80297852 43.26757812 C66.82798312 36.02009116 66.86734948 28.77280212 66.92487907 21.52550125 C66.94121545 18.99826648 66.94498402 16.47122028 66.94789124 13.94393921 C66.95766007 12.40581936 66.9679221 10.86770253 66.97875977 9.32958984 C66.97620682 8.62627533 66.97365387 7.92296082 66.97102356 7.19833374 C67.02250158 2.36031092 67.02250158 2.36031092 69.25 0.1328125 C71.84790039 -0.11010742 71.84790039 -0.11010742 75.09765625 -0.09765625 C76.25974609 -0.09572266 77.42183594 -0.09378906 78.61914062 -0.09179688 C79.83794922 -0.07955078 81.05675781 -0.06730469 82.3125 -0.0546875 C84.14651367 -0.0537207 84.14651367 -0.0537207 86.01757812 -0.05273438 C95.10988944 -0.00729806 95.10988944 -0.00729806 96.25 1.1328125 C96.35571416 3.62523222 96.39678168 6.09007818 96.39526367 8.58325195 C96.39862228 9.36391525 96.4019809 10.14457855 96.40544128 10.94889832 C96.41499146 13.5479794 96.41689734 16.14699617 96.41796875 18.74609375 C96.42118181 20.55437751 96.42454592 22.362661 96.42805481 24.17094421 C96.43405852 27.97505291 96.43589377 31.77913885 96.43530273 35.58325195 C96.43520179 40.43043954 96.44877758 45.27747839 96.46607494 50.12463093 C96.47726893 53.86786043 96.47921958 57.61105503 96.47869301 61.35429955 C96.47986495 63.13905531 96.48424202 64.92381223 96.49202538 66.70855141 C96.56416277 84.98109966 95.64431606 101.33260808 82.25 115.1328125 C71.22862266 124.69698725 55.08516484 127.71657754 40.84375 127.4453125 C26.01430977 126.15579596 12.59322299 121.69279493 2.19140625 110.62109375 C-4.9209632 101.50523994 -7.0744051 90.44494166 -6.99291992 79.140625 C-6.99481827 78.29235641 -6.99671661 77.44408783 -6.99867249 76.57011414 C-7.0023424 73.79924938 -6.99173622 71.02865346 -6.98046875 68.2578125 C-6.9792754 66.32251008 -6.97882412 64.38720707 -6.9790802 62.4519043 C-6.97752226 58.41402516 -6.9692807 54.37623555 -6.95581055 50.33837891 C-6.93873036 45.15183131 -6.93499916 39.96538103 -6.93575573 34.77880859 C-6.93548463 30.79155542 -6.93001463 26.8043237 -6.92275429 22.81707764 C-6.91956502 20.90322024 -6.91759961 18.9893604 -6.91686058 17.07550049 C-6.9147049 14.41357213 -6.90598025 11.75174956 -6.89526367 9.08984375 C-6.89571686 8.29406418 -6.89617004 7.49828461 -6.89663696 6.6783905 C-6.85765289 0.09358093 -6.47136256 0.00677326 0 0 Z " fill="#FCFDFD" transform="translate(448.75,326.8671875)"/>
<path d="M0 0 C1.16781006 0.00523682 2.33562012 0.01047363 3.53881836 0.01586914 C4.79887695 0.0190918 6.05893555 0.02231445 7.35717773 0.02563477 C8.6976732 0.03399136 10.03816799 0.04245632 11.37866211 0.05102539 C12.72306153 0.05603879 14.06746271 0.06060197 15.41186523 0.06469727 C18.71334151 0.07653051 22.01473014 0.09301568 25.31616211 0.11352539 C25.32496147 1.58358536 25.32496147 1.58358536 25.3339386 3.08334351 C25.39132911 12.35155725 25.46417512 21.61954004 25.55187702 30.88751793 C25.59646859 35.65147562 25.63574903 40.41535001 25.66259766 45.17944336 C25.68874301 49.78320084 25.72922368 54.38663578 25.77934837 58.99019241 C25.7959415 60.7402709 25.80750255 62.49040509 25.81377602 64.24055099 C25.5958471 79.65421528 25.5958471 79.65421528 31.50366211 93.55102539 C37.18744089 98.72957939 43.00314196 99.64665644 50.57006836 99.39477539 C56.26579096 98.81142969 61.31180448 97.67959028 65.25366211 93.30102539 C71.52181542 83.61387937 70.48054177 71.62276523 70.57652283 60.48802185 C70.59776007 58.04220186 70.62475497 55.59650302 70.65319824 53.15075684 C70.72259381 47.08762775 70.78264661 41.02441397 70.84222412 34.96118164 C70.89307609 29.81387165 70.94781353 24.66663356 71.00804138 19.51942444 C71.0346529 17.1057852 71.05543001 14.69213917 71.0760498 12.27844238 C71.09264009 10.8113573 71.10951079 9.34427535 71.12670898 7.87719727 C71.1455011 5.94934387 71.1455011 5.94934387 71.16467285 3.98254395 C71.31616211 1.11352539 71.31616211 1.11352539 72.31616211 0.11352539 C76.62263847 -0.13989696 80.94061265 -0.07170099 85.25366211 -0.07397461 C86.4724707 -0.0862207 87.6912793 -0.0984668 88.94702148 -0.11108398 C90.69015625 -0.11398437 90.69015625 -0.11398437 92.46850586 -0.11694336 C93.54092529 -0.12105225 94.61334473 -0.12516113 95.71826172 -0.12939453 C98.31616211 0.11352539 98.31616211 0.11352539 100.31616211 2.11352539 C100.49038078 4.73285665 100.53980443 7.24276717 100.49902344 9.86108398 C100.4943808 10.66140045 100.48973816 11.46171692 100.48495483 12.2862854 C100.46650665 14.94504846 100.432962 17.60336646 100.39819336 20.26196289 C100.3796296 22.11365296 100.36154458 23.96534789 100.34391785 25.81704712 C100.30433799 29.70944283 100.25697168 33.60165281 100.20458984 37.49389648 C100.13871983 42.45415132 100.09481774 47.41431291 100.05733204 52.37485313 C100.02537371 56.20657382 99.97997554 60.03805135 99.93085289 63.86958694 C99.9092964 65.69615632 99.89214698 67.5227837 99.87967873 69.34943771 C99.75569845 85.88349875 98.3250187 100.44942488 86.56616211 113.00805664 C74.23945875 124.54294051 58.78253515 125.89238316 42.70288086 125.43383789 C28.3727928 124.74662649 16.18894907 119.65101484 6.31616211 109.11352539 C-4.36865394 95.39113072 -3.98968134 78.17227246 -3.91430664 61.59790039 C-3.91311184 59.84767694 -3.91266231 58.09745284 -3.91291809 56.347229 C-3.91136621 52.70987844 -3.90316891 49.07262812 -3.88964844 45.43530273 C-3.87250779 40.76452886 -3.8688391 36.09386304 -3.86959362 31.42306137 C-3.86932265 27.82355715 -3.86385574 24.22407672 -3.85659218 20.62458038 C-3.85340562 18.90051706 -3.85143813 17.17645105 -3.85069847 15.45238495 C-3.84854335 13.05911071 -3.8398218 10.66595423 -3.82910156 8.27270508 C-3.82955475 7.55801559 -3.83000793 6.84332611 -3.83047485 6.10697937 C-3.79129369 0.16037038 -3.79129369 0.16037038 0 0 Z " fill="#FCFDFE" transform="translate(687.683837890625,480.886474609375)"/>
<path d="M0 0 C1.32773268 1.19011739 2.62220086 2.41874164 3.875 3.6875 C4.80119141 4.59435547 4.80119141 4.59435547 5.74609375 5.51953125 C9.66982526 9.67886789 9.66982526 9.67886789 10.33984375 12.97265625 C9.66221687 16.93022499 7.3626577 19.48455547 4.875 22.5 C4.39804687 23.09748047 3.92109375 23.69496094 3.4296875 24.31054688 C2.25555765 25.77820918 1.06669197 27.23406139 -0.125 28.6875 C-3.84413496 28.16796156 -5.78361372 27.45980095 -8.4375 24.8125 C-15.2284565 18.77609422 -21.78895789 18.13549266 -30.765625 18.328125 C-35.46896887 18.83127341 -38.21142602 20.05336367 -42.125 22.6875 C-44.80959754 26.71439631 -44.90742478 29.958559 -44.125 34.6875 C-38.89159606 41.60306949 -27.06029359 42.79268646 -18.9375 44.1875 C-8.06572858 46.08001716 0.45651107 49.96798391 8.125 58.0625 C14.54786181 67.69679272 15.67003088 76.22292421 14.875 87.6875 C12.85980768 97.68644787 6.86194871 107.23463613 -1.5 113.125 C-15.30226011 121.38725259 -32.41202036 123.26339797 -48.140625 120.00390625 C-51.27111942 119.09273577 -54.15494416 118.02881554 -57.125 116.6875 C-58.58099609 116.03394531 -58.58099609 116.03394531 -60.06640625 115.3671875 C-67.01060001 111.90926244 -74.40537844 107.41322692 -77.1640625 99.83203125 C-77.10890058 95.39149646 -74.86183031 93.35071308 -71.875 90.375 C-71.11896484 89.5696582 -71.11896484 89.5696582 -70.34765625 88.74804688 C-67.98950372 86.29395901 -66.39467694 84.77739231 -63.125 83.6875 C-60.70703125 84.98046875 -60.70703125 84.98046875 -57.9375 86.875 C-48.07274132 93.40372404 -40.08588407 96.61014884 -28.125 95.6875 C-22.4605747 94.47437687 -18.90846323 92.15886563 -15.125 87.6875 C-13.50879607 84.45509213 -13.55371954 81.18239224 -14.125 77.6875 C-18.45557819 71.40117682 -25.12835134 70.26363498 -32.21875 68.86328125 C-45.33398838 66.25072917 -57.82198959 63.05355694 -66.57421875 52.08984375 C-72.62888998 42.71044121 -74.48084718 32.03404551 -72.69921875 21.06640625 C-70.41282295 12.07511971 -64.84539064 5.20873037 -57.27734375 -0.03515625 C-41.36318128 -9.47967736 -15.50750378 -11.61101464 0 0 Z " fill="#FCFDFD" transform="translate(883.125,485.3125)"/>
<path d="M0 0 C1.36995117 -0.16918945 1.36995117 -0.16918945 2.76757812 -0.34179688 C5.97478267 -0.48479326 8.06883199 -0.2546996 11.0625 0.9375 C14.5713991 4.43246214 17.03736719 8.39078763 19.61361694 12.60092163 C21.78336918 16.10002815 24.08609755 19.50770002 26.37275696 22.93110657 C29.61043016 27.78944506 32.80164945 32.67822505 36 37.5625 C37.96947051 40.56646664 39.93975884 43.56988981 41.91151428 46.57235718 C43.12832664 48.42559307 44.34375597 50.27973801 45.55760193 52.13491821 C46.10570023 52.97034149 46.65379852 53.80576477 47.21850586 54.66650391 C47.93604286 55.76232285 47.93604286 55.76232285 48.66807556 56.88027954 C50.07139415 58.95062171 51.5455875 60.94929518 53.0625 62.9375 C53.07280746 62.17550797 53.08311493 61.41351593 53.09373474 60.62843323 C53.1915441 53.4619026 53.2940344 46.29546173 53.40183926 39.12907505 C53.45710165 35.4443981 53.51052679 31.75971327 53.55981445 28.07495117 C53.60740932 24.52172159 53.65975007 20.96859125 53.71544075 17.41547966 C53.7358865 16.05707189 53.75459585 14.69863688 53.77157402 13.34018135 C53.79556877 11.44360295 53.82620332 9.54711201 53.85717773 7.65063477 C53.87272202 6.56919693 53.8882663 5.48775909 53.90428162 4.37355042 C54.0625 1.9375 54.0625 1.9375 55.0625 0.9375 C56.61205559 0.83850477 58.16603673 0.80670476 59.71875 0.8046875 C60.65847656 0.80339844 61.59820313 0.80210937 62.56640625 0.80078125 C63.55511719 0.80464844 64.54382813 0.80851563 65.5625 0.8125 C67.04556641 0.80669922 67.04556641 0.80669922 68.55859375 0.80078125 C69.96818359 0.80271484 69.96818359 0.80271484 71.40625 0.8046875 C72.27443359 0.80581543 73.14261719 0.80694336 74.03710938 0.80810547 C76.0625 0.9375 76.0625 0.9375 77.0625 1.9375 C77.16317034 5.03720764 77.198643 8.11467671 77.19189453 11.21484375 C77.19452301 12.67568893 77.19452301 12.67568893 77.19720459 14.16604614 C77.20162499 17.40238194 77.19868445 20.6386636 77.1953125 23.875 C77.19598549 26.11319998 77.19695546 28.35139988 77.19821167 30.58959961 C77.1996889 35.28727919 77.19753329 39.9849398 77.19287109 44.68261719 C77.1871738 50.71910614 77.19045267 56.75555064 77.19644356 62.79203796 C77.2000485 67.41581561 77.19891089 72.03958264 77.19631577 76.6633606 C77.19564631 78.88982142 77.19647556 81.1162832 77.19879532 83.34274292 C77.20132074 86.44857355 77.1974828 89.5543311 77.19189453 92.66015625 C77.19391876 93.59006378 77.19594299 94.51997131 77.19802856 95.47805786 C77.17676227 101.82323773 77.17676227 101.82323773 76.0625 102.9375 C68.90778867 104.21149336 61.16289075 104.62911198 54.0625 102.9375 C49.73845667 99.55444019 47.94137186 95.51049903 45.53662109 90.65673828 C42.73901726 85.49613684 39.27640863 80.74214797 35.93319702 75.92443848 C28.16092632 64.6972117 20.63616772 53.29800157 13.0625 41.9375 C12.7325 62.0675 12.4025 82.1975 12.0625 102.9375 C4.8025 102.9375 -2.4575 102.9375 -9.9375 102.9375 C-11.67083492 99.47083016 -11.07531804 95.45421308 -11.06689453 91.63842773 C-11.06864685 90.67413849 -11.07039917 89.70984924 -11.07220459 88.71633911 C-11.07661839 85.51790587 -11.07368699 82.31952759 -11.0703125 79.12109375 C-11.07098562 76.90674326 -11.07195571 74.69239284 -11.07321167 72.4780426 C-11.07468796 67.83341774 -11.07253608 63.18881209 -11.06787109 58.54418945 C-11.06217053 52.57611025 -11.06545533 46.60807599 -11.07144356 40.63999844 C-11.07504819 36.06683511 -11.07391109 31.49368252 -11.07131577 26.92051888 C-11.0706464 24.71917783 -11.07147526 22.51783582 -11.07379532 20.3164959 C-11.0763206 17.24669668 -11.07248316 14.17697141 -11.06689453 11.10717773 C-11.06891876 10.18819199 -11.07094299 9.26920624 -11.07302856 8.32237244 C-11.04243012 -0.70023545 -8.16448585 0.47177518 0 0 Z " fill="#FEFEFE" transform="translate(579.9375,642.0625)"/>
<path d="M0 0 C10.29085278 -0.42934457 20.46537217 1.6865476 28.5234375 8.41015625 C38.59763187 18.10097748 38.59763187 18.10097748 40.37109375 23.1875 C40.35546875 25.76171875 40.35546875 25.76171875 39.37109375 28.1875 C36.82421875 29.76953125 36.82421875 29.76953125 33.62109375 31 C32.574375 31.41894531 31.52765625 31.83789062 30.44921875 32.26953125 C27.49552723 33.15039103 25.41722939 33.60765664 22.37109375 33.1875 C21.07974663 31.73473449 19.79358405 30.27197771 18.625 28.71875 C15.2601285 24.60962343 10.76493215 23.43320189 5.70703125 22.9140625 C-1.78284988 22.65715365 -7.57890084 23.53696203 -13.62890625 28.1875 C-19.91470122 35.28184121 -22.0086253 42.64178746 -21.94140625 51.9375 C-21.9364917 52.73591309 -21.93157715 53.53432617 -21.92651367 54.35693359 C-21.74487481 63.51712119 -19.77546955 72.09531158 -13.62890625 79.1875 C-6.73526441 84.70790642 -0.31763347 85.88717789 8.37109375 85.1875 C12.83997507 84.30484381 16.30070786 83.04380871 19.87109375 80.1875 C22.16695358 75.59578033 22.12482706 71.29753389 22.37109375 66.1875 C15.11109375 66.1875 7.85109375 66.1875 0.37109375 66.1875 C0.37109375 60.2475 0.37109375 54.3075 0.37109375 48.1875 C6.33422541 48.16285426 12.2973277 48.144666 18.26049805 48.13256836 C20.29077673 48.12752722 22.32105177 48.12069443 24.35131836 48.11206055 C27.26286722 48.09998533 30.17436825 48.09426966 33.0859375 48.08984375 C34.45624367 48.08210182 34.45624367 48.08210182 35.85423279 48.07420349 C38.02684802 48.07400832 40.19936671 48.12538195 42.37109375 48.1875 C44.37119429 50.18760054 43.55889956 54.17334378 43.57421875 56.9140625 C43.57991882 57.69510345 43.5856189 58.47614441 43.5914917 59.28085327 C43.60096027 60.94031412 43.60748302 62.59979393 43.61132812 64.25927734 C43.62097429 66.78126757 43.65195388 69.30242211 43.68359375 71.82421875 C43.6901297 73.43749517 43.69537784 75.05077741 43.69921875 76.6640625 C43.71156555 77.4122525 43.72391235 78.1604425 43.7366333 78.93130493 C43.71181714 84.86011883 42.55292764 89.61864457 38.609375 94.26171875 C26.98656543 103.99847403 12.73529953 108.02261768 -2.3828125 107.5078125 C-15.02353739 106.26047262 -25.59540475 101.29975945 -34.30078125 92.046875 C-46.52388972 77.03460084 -48.2651257 58.85594957 -46.62890625 40.1875 C-45.79385688 35.86409923 -44.55182204 32.13946655 -42.62890625 28.1875 C-42.231875 27.36121094 -41.83484375 26.53492188 -41.42578125 25.68359375 C-34.46085615 12.3047661 -23.83997359 5.66829828 -9.62890625 1.1875 C-6.3592055 0.44177878 -3.3295116 0.23746888 0 0 Z " fill="#FCFDFD" transform="translate(720.62890625,639.8125)"/>
<path d="M0 0 C0.91406113 -0.00350464 1.82812225 -0.00700928 2.7698822 -0.01062012 C5.79580241 -0.01943363 8.82148947 -0.01359007 11.84741211 -0.00683594 C13.94583684 -0.00818258 16.04426127 -0.0101231 18.14268494 -0.01263428 C22.54176807 -0.01558493 26.94077004 -0.01128931 31.33984375 -0.00195312 C36.9883599 0.00944835 42.63668615 0.00287712 48.28519535 -0.00909805 C52.61821432 -0.01631223 56.95118799 -0.01403088 61.2842083 -0.00884247 C63.36749735 -0.00750511 65.45079048 -0.00915668 67.53407478 -0.01380157 C70.44079676 -0.0188603 73.34720755 -0.0111661 76.25390625 0 C77.12097198 -0.00404846 77.98803772 -0.00809692 78.88137817 -0.01226807 C84.83372663 0.03025983 84.83372663 0.03025983 87.06225586 2.25878906 C87.30517578 4.48950195 87.30517578 4.48950195 87.29272461 7.23144531 C87.29079102 8.21306641 87.28885742 9.1946875 87.28686523 10.20605469 C87.27461914 11.23408203 87.26237305 12.26210938 87.24975586 13.32128906 C87.24878906 14.86913086 87.24878906 14.86913086 87.24780273 16.44824219 C87.20241583 24.11862909 87.20241583 24.11862909 86.06225586 25.25878906 C83.54131509 25.34726649 81.04794693 25.37406208 78.52709961 25.35644531 C77.39722374 25.35432289 77.39722374 25.35432289 76.24452209 25.35215759 C73.82956026 25.34654282 71.41468985 25.33398789 68.99975586 25.32128906 C67.36629365 25.31627596 65.73283 25.31171273 64.09936523 25.30761719 C60.08696001 25.2965686 56.07462345 25.27929413 52.06225586 25.25878906 C52.06447647 26.45926376 52.06669708 27.65973846 52.06898499 28.89659119 C52.08921468 40.18356201 52.10422716 51.47052919 52.11406803 62.757514 C52.1192973 68.56092519 52.12639573 74.36432181 52.13769531 80.16772461 C52.14852264 85.76329759 52.15453236 91.35885652 52.1571331 96.95443916 C52.15898763 99.0943785 52.16260877 101.23431703 52.16798592 103.37425041 C52.1751943 106.36043872 52.17624689 109.34656813 52.17578125 112.33276367 C52.17937653 113.22683929 52.1829718 114.12091492 52.18667603 115.04208374 C52.17630802 121.1447369 52.17630802 121.1447369 51.06225586 122.25878906 C49.07468558 122.35861964 47.08358066 122.38959659 45.09350586 122.39160156 C43.27786133 122.39353516 43.27786133 122.39353516 41.42553711 122.39550781 C40.1506543 122.39164063 38.87577148 122.38777344 37.56225586 122.38378906 C36.28737305 122.38765625 35.01249023 122.39152344 33.69897461 122.39550781 C32.48854492 122.39421875 31.27811523 122.39292969 30.03100586 122.39160156 C28.91145508 122.39047363 27.7919043 122.3893457 26.63842773 122.38818359 C24.06225586 122.25878906 24.06225586 122.25878906 23.06225586 121.25878906 C22.96697366 118.27580693 22.93673411 115.31602561 22.94873047 112.33276367 C22.94858444 111.39627487 22.94843842 110.45978607 22.94828796 109.49491882 C22.94898749 106.38363367 22.95678171 103.27240757 22.96459961 100.16113281 C22.96646365 98.01021864 22.96788762 95.85930403 22.96888733 93.70838928 C22.97271361 88.03497149 22.98254484 82.36157911 22.99359131 76.68817139 C23.00380306 70.9037714 23.00838444 65.11936733 23.01342773 59.33496094 C23.02416701 47.97622578 23.04124475 36.61750953 23.06225586 25.25878906 C21.52516968 25.26664429 21.52516968 25.26664429 19.95703125 25.2746582 C16.1683031 25.29270875 12.37957877 25.30422126 8.59082031 25.3137207 C6.94856121 25.3187608 5.30630663 25.32559284 3.6640625 25.33422852 C1.30850107 25.34630832 -1.04700123 25.35202045 -3.40258789 25.35644531 C-4.1411351 25.3616066 -4.87968231 25.36676788 -5.64060974 25.37208557 C-7.40672502 25.37228156 -9.1727156 25.32073625 -10.93774414 25.25878906 C-13.36615523 22.83037797 -12.17144457 16.58323968 -12.18774414 13.32128906 C-12.20836914 12.29326172 -12.22899414 11.26523437 -12.25024414 10.20605469 C-12.25540039 9.22443359 -12.26055664 8.2428125 -12.26586914 7.23144531 C-12.27521484 6.326604 -12.28456055 5.4217627 -12.29418945 4.48950195 C-12.1765625 3.7533667 -12.05893555 3.01723145 -11.93774414 2.25878906 C-7.98403122 -0.37701955 -4.58811576 -0.02147274 0 0 Z " fill="#FBFCFD" transform="translate(919.937744140625,480.7412109375)"/>
<path d="M0 0 C0.87798752 0.00404846 1.75597504 0.00809692 2.66056824 0.01226807 C4.04607124 0.00701111 4.04607124 0.00701111 5.45956421 0.00164795 C8.52338601 -0.00717963 11.58697832 -0.00131658 14.65080261 0.00543213 C16.77307683 0.00408577 18.89535074 0.00214549 21.0176239 -0.00036621 C25.46976146 -0.00331887 29.92181888 0.00098473 34.37394714 0.01031494 C40.09087248 0.02170952 45.80761006 0.01515081 51.5245285 0.00317001 C55.90816166 -0.00404475 60.29175004 -0.00176242 64.67538452 0.0034256 C66.78379336 0.00476316 68.89220621 0.00311069 71.00061035 -0.00153351 C73.94336268 -0.00659244 76.88580765 0.00110259 79.82853699 0.01226807 C80.70652451 0.0082196 81.58451202 0.00417114 82.48910522 0 C88.51602495 0.04252947 88.51602495 0.04252947 90.74455261 2.27105713 C90.98747253 4.50177002 90.98747253 4.50177002 90.97502136 7.24371338 C90.97308777 8.22533447 90.97115417 9.20695557 90.96916199 10.21832275 C90.95691589 11.2463501 90.9446698 12.27437744 90.93205261 13.33355713 C90.93108582 14.88139893 90.93108582 14.88139893 90.93009949 16.46051025 C90.88471258 24.13089716 90.88471258 24.13089716 89.74455261 25.27105713 C87.1509594 25.35957242 84.5841557 25.38631658 81.99064636 25.36871338 C81.21519974 25.36729843 80.43975311 25.36588348 79.64080811 25.36442566 C77.15451767 25.35881058 74.66831601 25.34625559 72.18205261 25.33355713 C70.50041328 25.32854407 68.81877255 25.32398083 67.13713074 25.31988525 C63.00623695 25.30883626 58.87540985 25.29156157 54.74455261 25.27105713 C54.74677322 26.47153183 54.74899384 27.67200653 54.75128174 28.90885925 C54.77151143 40.19583008 54.78652392 51.48279725 54.79636478 62.76978207 C54.80159405 68.57319326 54.80869249 74.37658987 54.81999207 80.17999268 C54.8308194 85.77556566 54.83682912 91.37112458 54.83942986 96.96670723 C54.84128438 99.10664657 54.84490552 101.24658509 54.85028267 103.38651848 C54.85749105 106.37270678 54.85854364 109.3588362 54.858078 112.34503174 C54.86167328 113.23910736 54.86526855 114.13318298 54.86897278 115.05435181 C54.85860477 121.15700497 54.85860477 121.15700497 53.74455261 122.27105713 C49.43807625 122.52447948 45.12010207 122.45628351 40.80705261 122.45855713 C38.97883972 122.47692627 38.97883972 122.47692627 37.11369324 122.4956665 C35.37055847 122.49856689 35.37055847 122.49856689 33.59220886 122.50152588 C32.51978943 122.50563477 31.44737 122.50974365 30.342453 122.51397705 C27.74455261 122.27105713 27.74455261 122.27105713 25.74455261 120.27105713 C25.55616907 117.25775707 25.49290818 114.3370067 25.51750183 111.32330322 C25.51720978 110.39642197 25.51691772 109.46954071 25.51661682 108.51457214 C25.51801372 105.44111879 25.53359186 102.3679058 25.54924011 99.29449463 C25.55296896 97.16743095 25.55581654 95.04036556 25.55781555 92.91329956 C25.5654621 87.30726401 25.58511935 81.70133163 25.60722351 76.09533691 C25.62765997 70.37788285 25.63681256 64.66041217 25.64689636 58.94293213 C25.66836427 47.7189284 25.70251251 36.49500133 25.74455261 25.27105713 C24.25290588 25.27891235 24.25290588 25.27891235 22.73112488 25.28692627 C19.0542134 25.30497754 15.37730587 25.31648959 11.70036316 25.32598877 C10.10660647 25.3310287 8.51285442 25.33786063 6.91911316 25.34649658 C4.63305009 25.35857711 2.34704794 25.36428868 0.06095886 25.36871338 C-0.65571457 25.37387466 -1.372388 25.37903595 -2.11077881 25.38435364 C-3.82608411 25.38454976 -5.54126005 25.3329772 -7.25544739 25.27105713 C-9.67360905 22.85289547 -8.44091758 16.58327894 -8.44294739 13.33355713 C-8.45519348 12.30552979 -8.46743958 11.27750244 -8.48005676 10.21832275 C-8.48199036 9.23670166 -8.48392395 8.25508057 -8.48591614 7.24371338 C-8.49002502 6.33887207 -8.49413391 5.43403076 -8.49836731 4.50177002 C-7.93867313 -0.63785379 -4.30023103 0.03034495 0 0 Z " fill="#FCFDFD" transform="translate(464.2554473876953,480.72894287109375)"/>
<path d="M0 0 C8.5880572 -0.02312635 17.17610149 -0.04091658 25.76418209 -0.05181217 C29.751572 -0.05704036 33.73894067 -0.06413684 37.72631836 -0.07543945 C41.57125114 -0.08627061 45.41616345 -0.09227732 49.26111031 -0.09487724 C50.73118983 -0.09673108 52.20126818 -0.10035091 53.67133904 -0.10573006 C55.72354467 -0.11294355 57.77566467 -0.11399081 59.82788086 -0.11352539 C61.58327431 -0.11685631 61.58327431 -0.11685631 63.37413025 -0.12025452 C66 0 66 0 67 1 C67.12713954 3.61670921 67.18521024 6.19530713 67.1875 8.8125 C67.19974609 9.53759766 67.21199219 10.26269531 67.22460938 11.00976562 C67.23597854 15.15193017 66.89931825 17.2013635 65 21 C51.14 21 37.28 21 23 21 C23 27.27 23 33.54 23 40 C25.57554687 39.98839844 28.15109375 39.97679687 30.8046875 39.96484375 C33.29345578 39.95704963 35.78222271 39.95097488 38.27099609 39.94506836 C40.00342414 39.94003318 41.73584792 39.93320468 43.46826172 39.92456055 C45.95541433 39.91245935 48.44251087 39.90676362 50.9296875 39.90234375 C52.09538773 39.89460182 52.09538773 39.89460182 53.28463745 39.88670349 C58.77225659 39.88612829 58.77225659 39.88612829 61 41 C61.02683987 43.97922593 61.04676037 46.95821295 61.0625 49.9375 C61.07087891 50.78763672 61.07925781 51.63777344 61.08789062 52.51367188 C61.09111328 53.32255859 61.09433594 54.13144531 61.09765625 54.96484375 C61.10289307 55.7137085 61.10812988 56.46257324 61.11352539 57.23413086 C61 59 61 59 60 60 C57.26105915 60.08858646 54.5474673 60.11523479 51.80859375 60.09765625 C50.98875504 60.0962413 50.16891632 60.09482635 49.32423401 60.09336853 C46.69528618 60.08775289 44.06642227 60.07519779 41.4375 60.0625 C39.65950643 60.05748701 37.88151154 60.05292376 36.10351562 60.04882812 C31.73561842 60.03862752 27.3679036 60.01905532 23 60 C23 66.93 23 73.86 23 81 C26.16464844 80.98839844 29.32929687 80.97679687 32.58984375 80.96484375 C35.64119364 80.95705406 38.69254244 80.9509768 41.74389648 80.94506836 C43.87118014 80.94002702 45.99846031 80.93319409 48.12573242 80.92456055 C51.17627826 80.91248621 54.22677845 80.90676986 57.27734375 80.90234375 C58.71327126 80.89460182 58.71327126 80.89460182 60.1782074 80.88670349 C61.49946373 80.88659019 61.49946373 80.88659019 62.84741211 80.88647461 C63.62684677 80.884254 64.40628143 80.88203339 65.20933533 80.87974548 C67 81 67 81 68 82 C68.09860131 83.40348735 68.13078937 84.81180477 68.1328125 86.21875 C68.13410156 87.06824219 68.13539062 87.91773438 68.13671875 88.79296875 C68.13285156 89.68628906 68.12898438 90.57960938 68.125 91.5 C68.12886719 92.39332031 68.13273437 93.28664063 68.13671875 94.20703125 C68.13542969 95.05652344 68.13414063 95.90601563 68.1328125 96.78125 C68.13168457 97.56564453 68.13055664 98.35003906 68.12939453 99.15820312 C68 101 68 101 67 102 C64.91924591 102.09943972 62.83508152 102.12799596 60.75195312 102.12939453 C60.09992416 102.13114685 59.4478952 102.13289917 58.77610779 102.13470459 C56.61112847 102.13912204 54.44623021 102.13618551 52.28125 102.1328125 C50.78291813 102.13348557 49.28458637 102.13445562 47.78625488 102.13571167 C44.64216067 102.1371885 41.49809483 102.13503458 38.35400391 102.13037109 C34.31513461 102.1246738 30.27633176 102.12795289 26.2374649 102.13394356 C23.1423492 102.13754958 20.04724935 102.13641039 16.95213318 102.13381577 C15.46251925 102.13314661 13.9729039 102.13397452 12.48329163 102.13629532 C10.40483765 102.13882253 8.32649269 102.13498033 6.24804688 102.12939453 C4.4705304 102.12820114 4.4705304 102.12820114 2.65710449 102.12698364 C0 102 0 102 -1 101 C-1.10065815 97.93609511 -1.13614435 94.89469029 -1.12939453 91.83032227 C-1.13114685 90.86778534 -1.13289917 89.90524841 -1.13470459 88.9135437 C-1.13912536 85.71447983 -1.13618409 82.51547073 -1.1328125 79.31640625 C-1.13348553 77.10302215 -1.13445555 74.88963812 -1.13571167 72.67625427 C-1.13718899 68.02984923 -1.13503319 63.38346337 -1.13037109 58.73706055 C-1.12467711 52.77017214 -1.12795051 46.80332874 -1.13394356 40.83644199 C-1.13755107 36.26323607 -1.13640965 31.69004088 -1.13381577 27.11683464 C-1.13314685 24.91632011 -1.13397368 22.71580462 -1.13629532 20.51529121 C-1.13882458 17.44319186 -1.13497718 14.37116612 -1.12939453 11.29907227 C-1.13141876 10.38211075 -1.13344299 9.46514923 -1.13552856 8.520401 C-1.11426299 2.22852599 -1.11426299 2.22852599 0 0 Z " fill="#FCFDFE" transform="translate(968,643)"/>
<path d="M0 0 C1.06669922 0.00322266 2.13339844 0.00644531 3.23242188 0.00976562 C4.29525391 -0.00634766 5.35808594 -0.02246094 6.453125 -0.0390625 C7.98163086 -0.0400293 7.98163086 -0.0400293 9.54101562 -0.04101562 C10.4761499 -0.04399658 11.41128418 -0.04697754 12.37475586 -0.05004883 C15.29046323 0.39849891 15.98543038 1.04644121 17.79492188 3.32226562 C18.07577778 6.41084908 18.17345368 9.29547683 18.13549805 12.38354492 C18.13615517 13.77408585 18.13615517 13.77408585 18.13682556 15.19271851 C18.13473336 18.26085374 18.11138178 21.32844444 18.08789062 24.39648438 C18.08229621 26.52211712 18.07802538 28.64775373 18.07502747 30.77339172 C18.06356656 36.37125303 18.03408853 41.96888125 18.00091553 47.56665039 C17.97024156 53.27747443 17.95652784 58.98833609 17.94140625 64.69921875 C17.90922013 75.90700351 17.85800863 87.1146152 17.79492188 98.32226562 C18.42719193 98.31560379 19.05946198 98.30894196 19.71089172 98.30207825 C26.28043543 98.23580416 32.84988447 98.19049802 39.41967773 98.1574707 C41.87284196 98.14236681 44.32597911 98.12188241 46.77905273 98.09594727 C50.30133742 98.05963505 53.82326569 98.04255526 57.34570312 98.02929688 C58.44578201 98.01381302 59.5458609 97.99832916 60.67927551 97.9823761 C62.21052315 97.98203621 62.21052315 97.98203621 63.77270508 97.98168945 C64.67205276 97.97502762 65.57140045 97.96836578 66.4980011 97.96150208 C69.26086652 98.39544875 70.13894166 99.10608781 71.79492188 101.32226562 C72.16723633 103.55883789 72.16723633 103.55883789 72.15820312 106.13867188 C72.15723633 107.53182617 72.15723633 107.53182617 72.15625 108.953125 C72.14013672 109.92056641 72.12402344 110.88800781 72.10742188 111.88476562 C72.11064453 112.85607422 72.11386719 113.82738281 72.1171875 114.828125 C72.06194196 122.05524554 72.06194196 122.05524554 69.79492188 124.32226562 C67.27067858 124.51530728 64.85664664 124.58462322 62.33178711 124.56518555 C61.56256927 124.56708389 60.79335144 124.56898224 60.00082397 124.57093811 C57.45161838 124.57465075 54.90269601 124.56393572 52.35351562 124.55273438 C50.58757053 124.55154284 48.8216248 124.55108936 47.05567932 124.55134583 C43.35259033 124.54978017 39.64959791 124.5414836 35.9465332 124.52807617 C31.18912629 124.5110738 26.43182548 124.50726213 21.67439175 124.50802135 C18.02768431 124.50775004 14.38100028 124.50227528 10.73430061 124.49501991 C8.97953532 124.4918279 7.22476736 124.4898646 5.46999931 124.48912621 C3.02284049 124.48696896 0.57579646 124.47823854 -1.87133789 124.4675293 C-2.60330887 124.46798248 -3.33527985 124.46843567 -4.08943176 124.46890259 C-9.09060316 124.43674059 -9.09060316 124.43674059 -10.20507812 123.32226562 C-10.3053262 121.75803278 -10.33583539 120.18928053 -10.33879089 118.62184143 C-10.34305588 117.60524445 -10.34732086 116.58864746 -10.35171509 115.54124451 C-10.3512619 114.41654251 -10.35080872 113.29184052 -10.3503418 112.13305664 C-10.35370041 110.95594116 -10.35705902 109.77882568 -10.36051941 108.56604004 C-10.36841496 105.32845494 -10.37169834 102.09090823 -10.3723352 98.85331464 C-10.37328272 96.15438364 -10.37695922 93.45545885 -10.38050729 90.75653023 C-10.38865931 84.39098768 -10.39109085 78.02545928 -10.39038086 71.65991211 C-10.38977989 65.08486583 -10.40033367 58.50990155 -10.41612452 51.93487602 C-10.42918299 46.29750002 -10.43456547 40.66015087 -10.43392545 35.02275985 C-10.43366996 31.65243301 -10.43654919 28.28217898 -10.4471035 24.91186714 C-10.45684604 21.15479761 -10.45404811 17.39794175 -10.44799805 13.64086914 C-10.45361755 12.51819138 -10.45923706 11.39551361 -10.46502686 10.23881531 C-10.46083237 9.2193985 -10.45663788 8.19998169 -10.45231628 7.14967346 C-10.45286105 6.26052026 -10.45340582 5.37136705 -10.45396709 4.45526981 C-9.78920476 -1.24181209 -4.43323942 0.03088387 0 0 Z " fill="#FDFEFE" transform="translate(638.205078125,326.677734375)"/>
<path d="M0 0 C7.26 0 14.52 0 22 0 C30.13959371 24.288894 38.13739676 48.62003088 46 73 C47.40208862 68.85626295 48.79662168 64.71001109 50.1875 60.5625 C50.40398193 59.9176062 50.62046387 59.2727124 50.84350586 58.60827637 C53.81233959 49.74882228 56.69132271 40.86447305 59.48828125 31.94921875 C59.78034958 31.01972916 60.07241791 30.09023956 60.37333679 29.13258362 C61.82677336 24.50321121 63.27228428 19.8715436 64.70776367 15.23657227 C65.24246949 13.52744196 65.77737217 11.81837322 66.3125 10.109375 C66.67599297 8.92229195 66.67599297 8.92229195 67.04682922 7.71122742 C68.77327222 2.22672778 68.77327222 2.22672778 71 0 C73.24658203 -0.22705078 73.24658203 -0.22705078 76.0078125 -0.1953125 C76.99394531 -0.18886719 77.98007812 -0.18242188 78.99609375 -0.17578125 C80.02863281 -0.15902344 81.06117188 -0.14226563 82.125 -0.125 C83.16527344 -0.11597656 84.20554687 -0.10695313 85.27734375 -0.09765625 C87.85179092 -0.07403747 90.42578212 -0.04110149 93 0 C92.47414152 6.92665881 90.96595981 12.86988662 88.67578125 19.41015625 C88.16830353 20.89489944 88.16830353 20.89489944 87.65057373 22.40963745 C86.54701689 25.63048212 85.43012826 28.84651388 84.3125 32.0625 C83.5448342 34.29152177 82.77783217 36.52077224 82.01147461 38.75024414 C80.06340396 44.40888183 78.10327752 50.06326079 76.1394043 55.71643066 C75.04215243 58.87852388 73.94890534 62.04196625 72.85742188 65.20605469 C71.23327083 69.91426756 69.60429425 74.62077036 67.96981812 79.32540894 C67.36712235 81.06051837 66.76541003 82.79596973 66.16470337 84.5317688 C65.33430045 86.92770589 64.4981883 89.32156621 63.66015625 91.71484375 C63.29721466 92.76597855 63.29721466 92.76597855 62.92694092 93.83834839 C61.85750258 96.87344587 60.79788271 99.30317594 59 102 C56.47802734 102.34057617 56.47802734 102.34057617 53.3359375 102.29296875 C52.21445312 102.28330078 51.09296875 102.27363281 49.9375 102.26367188 C48.1740625 102.2259668 48.1740625 102.2259668 46.375 102.1875 C45.19164062 102.17396484 44.00828125 102.16042969 42.7890625 102.14648438 C39.85892461 102.11103916 36.92968541 102.06162769 34 102 C30.55772517 95.64442377 28.19700063 89.13829219 25.91067505 82.28991699 C24.73921678 78.78371301 23.54722989 75.28450171 22.35546875 71.78515625 C22.0967247 71.0245993 21.83798065 70.26404236 21.57139587 69.48043823 C17.33978726 57.08621413 12.89242475 44.76672664 8.48339844 32.43481445 C6.91346691 28.04273218 5.35391314 23.64707887 3.80010986 19.24926758 C3.0795831 17.22372388 2.34474009 15.20412207 1.60498047 13.18554688 C1.22873535 12.12916016 0.85249023 11.07277344 0.46484375 9.984375 C0.15023193 9.12038086 -0.16437988 8.25638672 -0.48852539 7.36621094 C-1 5 -1 5 0 0 Z " fill="#FCFDFE" transform="translate(417,643)"/>
<path d="M0 0 C1.07241943 0.00410889 2.14483887 0.00821777 3.24975586 0.01245117 C4.4118457 0.01438477 5.57393555 0.01631836 6.77124023 0.01831055 C7.99004883 0.03055664 9.20885742 0.04280273 10.46459961 0.05541992 C12.29861328 0.05638672 12.29861328 0.05638672 14.16967773 0.05737305 C23.26198905 0.10280936 23.26198905 0.10280936 24.40209961 1.24291992 C24.50021095 2.82214721 24.52841853 4.40576525 24.52908325 5.98803711 C24.53190308 7.01449341 24.5347229 8.04094971 24.53762817 9.09851074 C24.53560394 10.23413452 24.53357971 11.3697583 24.53149414 12.53979492 C24.53324646 13.72827026 24.53499878 14.91674561 24.5368042 16.14123535 C24.54046231 19.40974768 24.53958933 22.67821981 24.53642511 25.94673157 C24.53390108 29.36024055 24.53623917 32.77374677 24.53781128 36.18725586 C24.53963285 41.92065923 24.537227 47.65404975 24.5324707 53.38745117 C24.5270281 60.02497768 24.52879077 66.66247347 24.53429711 73.29999924 C24.5388286 78.98916258 24.53947861 84.67831666 24.53685844 90.36748123 C24.53529586 93.76961013 24.53510136 97.17172456 24.53839493 100.57385254 C24.5409197 104.3646048 24.53708332 108.15529715 24.53149414 111.94604492 C24.53351837 113.0816687 24.5355426 114.21729248 24.53762817 115.3873291 C24.53339844 116.92701355 24.53339844 116.92701355 24.52908325 118.49780273 C24.52870623 119.39525208 24.5283292 120.29270142 24.52794075 121.21734619 C24.40209961 123.24291992 24.40209961 123.24291992 23.40209961 124.24291992 C19.09562325 124.49634228 14.77764907 124.42814631 10.46459961 124.43041992 C8.63638672 124.44878906 8.63638672 124.44878906 6.77124023 124.4675293 C5.02810547 124.47042969 5.02810547 124.47042969 3.24975586 124.47338867 C1.64112671 124.479552 1.64112671 124.479552 0 124.48583984 C-2.59790039 124.24291992 -2.59790039 124.24291992 -4.59790039 122.24291992 C-4.84958267 120.12832642 -4.84958267 120.12832642 -4.85186768 117.46020508 C-4.85750732 116.45064758 -4.86314697 115.44109009 -4.86895752 114.40093994 C-4.86490906 113.28918396 -4.8608606 112.17742798 -4.85668945 111.03198242 C-4.86019409 109.86447449 -4.86369873 108.69696655 -4.86730957 107.49407959 C-4.87461793 104.28749884 -4.87288494 101.08108245 -4.8665514 97.87450409 C-4.86149699 94.5228613 -4.86618129 91.17122291 -4.86932373 87.81958008 C-4.87296501 82.19049094 -4.86816005 76.56145423 -4.85864258 70.93237305 C-4.84775768 64.41921346 -4.85128315 57.90617908 -4.86229539 51.39302254 C-4.87136367 45.80657439 -4.8726558 40.22016399 -4.86741805 34.63371086 C-4.86429581 31.29470942 -4.86389594 27.9557546 -4.87049103 24.61676025 C-4.87554673 20.89570543 -4.8678593 17.17489403 -4.85668945 13.45385742 C-4.86073792 12.34210144 -4.86478638 11.23034546 -4.86895752 10.0848999 C-4.86331787 9.07534241 -4.85767822 8.06578491 -4.85186768 7.02563477 C-4.85111362 6.14515472 -4.85035957 5.26467468 -4.84958267 4.35751343 C-4.45088907 1.00775476 -3.26671554 0.30545832 0 0 Z " fill="#FDFEFE" transform="translate(575.597900390625,326.757080078125)"/>
<path d="M0 0 C1.0305249 0.00410889 2.0610498 0.00821777 3.12280273 0.01245117 C4.23977539 0.01438477 5.35674805 0.01631836 6.50756836 0.01831055 C8.26423828 0.03667969 8.26423828 0.03667969 10.05639648 0.05541992 C11.23137695 0.05606445 12.40635742 0.05670898 13.61694336 0.05737305 C22.35377508 0.10279852 22.35377508 0.10279852 23.49389648 1.24291992 C23.59200783 2.82214721 23.6202154 4.40576525 23.62088013 5.98803711 C23.62369995 7.01449341 23.62651978 8.04094971 23.62942505 9.09851074 C23.62740082 10.23413452 23.62537659 11.3697583 23.62329102 12.53979492 C23.62504333 13.72827026 23.62679565 14.91674561 23.62860107 16.14123535 C23.63225919 19.40974768 23.6313862 22.67821981 23.62822199 25.94673157 C23.62569795 29.36024055 23.62803605 32.77374677 23.62960815 36.18725586 C23.63142972 41.92065923 23.62902388 47.65404975 23.62426758 53.38745117 C23.61882498 60.02497768 23.62058764 66.66247347 23.62609398 73.29999924 C23.63062548 78.98916258 23.63127548 84.67831666 23.62865531 90.36748123 C23.62709274 93.76961013 23.62689824 97.17172456 23.6301918 100.57385254 C23.63271658 104.3646048 23.62888019 108.15529715 23.62329102 111.94604492 C23.62531525 113.0816687 23.62733948 114.21729248 23.62942505 115.3873291 C23.62519531 116.92701355 23.62519531 116.92701355 23.62088013 118.49780273 C23.6205031 119.39525208 23.62012608 120.29270142 23.61973763 121.21734619 C23.49389648 123.24291992 23.49389648 123.24291992 22.49389648 124.24291992 C18.35427366 124.49593231 14.20283652 124.42814541 10.05639648 124.43041992 C8.8852832 124.44266602 7.71416992 124.45491211 6.50756836 124.4675293 C5.3905957 124.46946289 4.27362305 124.47139648 3.12280273 124.47338867 C2.09227783 124.47749756 1.06175293 124.48160645 0 124.48583984 C-2.50610352 124.24291992 -2.50610352 124.24291992 -4.50610352 122.24291992 C-4.7577858 120.12832642 -4.7577858 120.12832642 -4.7600708 117.46020508 C-4.76571045 116.45064758 -4.7713501 115.44109009 -4.77716064 114.40093994 C-4.77311218 113.28918396 -4.76906372 112.17742798 -4.76489258 111.03198242 C-4.76839722 109.86447449 -4.77190186 108.69696655 -4.7755127 107.49407959 C-4.78282105 104.28749884 -4.78108807 101.08108245 -4.77475452 97.87450409 C-4.76970011 94.5228613 -4.77438442 91.17122291 -4.77752686 87.81958008 C-4.78116814 82.19049094 -4.77636318 76.56145423 -4.7668457 70.93237305 C-4.75596081 64.41921346 -4.75948627 57.90617908 -4.77049851 51.39302254 C-4.7795668 45.80657439 -4.78085893 40.22016399 -4.77562118 34.63371086 C-4.77249893 31.29470942 -4.77209907 27.9557546 -4.77869415 24.61676025 C-4.78374985 20.89570543 -4.77606243 17.17489403 -4.76489258 13.45385742 C-4.76894104 12.34210144 -4.7729895 11.23034546 -4.77716064 10.0848999 C-4.771521 9.07534241 -4.76588135 8.06578491 -4.7600708 7.02563477 C-4.75931675 6.14515472 -4.7585627 5.26467468 -4.7577858 4.35751343 C-4.36651963 1.07015883 -3.21919752 0.31204106 0 0 Z " fill="#FEFEFE" transform="translate(864.506103515625,326.757080078125)"/>
<path d="M0 0 C3.62493334 -0.05787784 7.24974857 -0.0935542 10.875 -0.125 C11.90753906 -0.14175781 12.94007813 -0.15851562 14.00390625 -0.17578125 C14.99003906 -0.18222656 15.97617187 -0.18867187 16.9921875 -0.1953125 C18.35899658 -0.21102295 18.35899658 -0.21102295 19.75341797 -0.22705078 C22 0 22 0 24 2 C24.1878075 4.52976535 24.25191906 6.94907405 24.22705078 9.47900391 C24.22734283 10.24982803 24.22763489 11.02065216 24.22793579 11.81483459 C24.22653974 14.36885745 24.21096579 16.92259046 24.1953125 19.4765625 C24.19158334 21.24490194 24.18873591 23.01324345 24.18673706 24.78158569 C24.17909293 29.44069095 24.15943778 34.09967194 24.1373291 38.75872803 C24.11688744 43.51100992 24.10773894 48.26331184 24.09765625 53.015625 C24.07619259 62.34380466 24.04204728 71.67189201 24 81 C25.29736084 80.99476318 26.59472168 80.98952637 27.93139648 80.98413086 C32.72647415 80.96608531 37.5215488 80.95456963 42.31665039 80.94506836 C44.39543156 80.94002712 46.47420916 80.93319426 48.55297852 80.92456055 C51.53402586 80.91248578 54.51502649 80.90676976 57.49609375 80.90234375 C58.89921059 80.89460182 58.89921059 80.89460182 60.33067322 80.88670349 C61.19149002 80.88662796 62.05230682 80.88655243 62.93920898 80.88647461 C63.70087875 80.884254 64.46254852 80.88203339 65.24729919 80.87974548 C67 81 67 81 68 82 C68.09860131 83.40348735 68.13078937 84.81180477 68.1328125 86.21875 C68.13410156 87.06824219 68.13539063 87.91773438 68.13671875 88.79296875 C68.13285156 89.68628906 68.12898438 90.57960938 68.125 91.5 C68.12886719 92.39332031 68.13273437 93.28664063 68.13671875 94.20703125 C68.13542969 95.05652344 68.13414062 95.90601563 68.1328125 96.78125 C68.13168457 97.56564453 68.13055664 98.35003906 68.12939453 99.15820312 C68 101 68 101 67 102 C64.94987154 102.09939626 62.89628608 102.12799553 60.84375 102.12939453 C59.52568359 102.13254669 58.20761719 102.13569885 56.84960938 102.13894653 C55.39973925 102.13715675 53.94986942 102.1351058 52.5 102.1328125 C51.02408838 102.13348557 49.54817687 102.13445563 48.07226562 102.13571167 C44.97524971 102.13718848 41.87826258 102.13503464 38.78125 102.13037109 C34.80291451 102.1246738 30.82464648 102.1279529 26.84631348 102.13394356 C23.79752083 102.13754963 20.74874429 102.13641037 17.69995117 102.13381577 C16.23266594 102.13314662 14.76537926 102.13397447 13.2980957 102.13629532 C11.25081407 102.13882257 9.20352734 102.1342906 7.15625 102.12939453 C5.40538086 102.12820114 5.40538086 102.12820114 3.61914062 102.12698364 C1 102 1 102 0 101 C-0.09534958 97.86440114 -0.12550879 94.75086387 -0.11352539 91.61499023 C-0.11367142 90.62973358 -0.11381744 89.64447693 -0.1139679 88.62936401 C-0.11326832 85.35575193 -0.10547385 82.08219596 -0.09765625 78.80859375 C-0.09579223 76.54557832 -0.09436825 74.28256249 -0.09336853 72.01954651 C-0.0895421 66.05021052 -0.07971075 60.08089868 -0.06866455 54.11157227 C-0.05845312 48.02555671 -0.05387149 41.93953727 -0.04882812 35.85351562 C-0.03808859 23.90233311 -0.02101068 11.95116856 0 0 Z " fill="#FDFDFE" transform="translate(297,643)"/>
<path d="M0 0 C0.98033203 -0.01224609 1.96066406 -0.02449219 2.97070312 -0.03710938 C3.90720703 -0.03904297 4.84371094 -0.04097656 5.80859375 -0.04296875 C6.67154053 -0.04707764 7.5344873 -0.05118652 8.42358398 -0.05541992 C10.5625 0.1875 10.5625 0.1875 12.5625 2.1875 C12.7503075 4.71726535 12.81441906 7.13657405 12.78955078 9.66650391 C12.78984283 10.43732803 12.79013489 11.20815216 12.79043579 12.00233459 C12.78903974 14.55635745 12.77346579 17.11009046 12.7578125 19.6640625 C12.75408334 21.43240194 12.75123591 23.20074345 12.74923706 24.96908569 C12.74159293 29.62819095 12.72193778 34.28717194 12.6998291 38.94622803 C12.67938744 43.69850992 12.67023894 48.45081184 12.66015625 53.203125 C12.63869259 62.53130466 12.60454728 71.85939201 12.5625 81.1875 C13.82433105 81.17702637 15.08616211 81.16655273 16.38623047 81.15576172 C21.05644914 81.11963101 25.72665539 81.09662484 30.39697266 81.07763672 C32.42043127 81.06756329 34.44387528 81.05390405 36.46728516 81.03662109 C39.37145589 81.01243153 42.27543461 81.00103051 45.1796875 80.9921875 C46.08806366 80.98186493 46.99643982 80.97154236 47.93234253 80.96090698 C48.77306305 80.96075592 49.61378357 80.96060486 50.47998047 80.96044922 C51.22166473 80.956008 51.963349 80.95156677 52.72750854 80.94699097 C54.5625 81.1875 54.5625 81.1875 56.5625 83.1875 C56.80541992 85.05102539 56.80541992 85.05102539 56.79296875 87.28515625 C56.79103516 88.08630859 56.78910156 88.88746094 56.78710938 89.71289062 C56.77486328 90.55013672 56.76261719 91.38738281 56.75 92.25 C56.7490332 93.51166992 56.7490332 93.51166992 56.74804688 94.79882812 C56.70273184 101.04726816 56.70273184 101.04726816 55.5625 102.1875 C53.47630978 102.28167773 51.38689523 102.30492878 49.29858398 102.30102539 C48.3181311 102.30124443 48.3181311 102.30124443 47.31787109 102.3014679 C45.14807872 102.30076883 42.97837121 102.29297678 40.80859375 102.28515625 C39.30786689 102.28329205 37.80713943 102.28186816 36.30641174 102.28086853 C32.34931774 102.27704352 28.39226022 102.2672134 24.43518066 102.25616455 C20.40015151 102.24595006 16.36511647 102.24137083 12.33007812 102.23632812 C4.40753531 102.22559111 -3.51497781 102.2085149 -11.4375 102.1875 C-11.4606209 89.03600976 -11.47841379 75.88452431 -11.48931217 62.73301792 C-11.49454156 56.62693631 -11.5016402 50.52086856 -11.51293945 44.41479492 C-11.52376637 38.52744853 -11.52977642 32.64011551 -11.53237724 26.75275993 C-11.53423185 24.50117723 -11.53785313 22.24959531 -11.54323006 19.99801826 C-11.55043789 16.85616573 -11.55149105 13.71436917 -11.55102539 10.57250977 C-11.55462067 9.63168045 -11.55821594 8.69085114 -11.56192017 7.72151184 C-11.54658564 -1.77376381 -8.44374335 0.00552963 0 0 Z " fill="#FCFCFD" transform="translate(1146.4375,642.8125)"/>
<path d="M0 0 C0.91644287 0.00523682 1.83288574 0.01047363 2.77709961 0.01586914 C3.76645508 0.0190918 4.75581055 0.02231445 5.77514648 0.02563477 C6.81606445 0.03401367 7.85698242 0.04239258 8.92944336 0.05102539 C10.49662109 0.05779297 10.49662109 0.05779297 12.09545898 0.06469727 C14.68600996 0.07652627 17.27644895 0.0930085 19.86694336 0.11352539 C21.38076501 3.14116869 20.99678588 6.27254092 20.98046875 9.5925293 C20.98061478 10.36335342 20.9807608 11.13417755 20.98091125 11.92835999 C20.98021325 14.48229768 20.97242611 17.0361629 20.96459961 19.59008789 C20.96273503 21.35842855 20.96131132 23.12676972 20.96031189 24.89511108 C20.95648986 29.55417298 20.94666224 34.21320381 20.93560791 38.87225342 C20.92538705 43.62454813 20.92081282 48.37684786 20.91577148 53.12915039 C20.9050397 62.45728906 20.88796703 71.78540464 20.86694336 81.11352539 C22.12877441 81.10305176 23.39060547 81.09257813 24.69067383 81.08178711 C29.3608925 81.0456564 34.03109875 81.02265023 38.70141602 81.00366211 C40.72487463 80.99358868 42.74831864 80.97992944 44.77172852 80.96264648 C47.67589925 80.93845692 50.57987797 80.9270559 53.48413086 80.91821289 C54.39250702 80.90789032 55.30088318 80.89756775 56.23678589 80.88693237 C57.07750641 80.88678131 57.91822693 80.88663025 58.78442383 80.88647461 C59.52610809 80.88203339 60.26779236 80.87759216 61.0319519 80.87301636 C62.86694336 81.11352539 62.86694336 81.11352539 64.86694336 83.11352539 C65.10986328 84.97705078 65.10986328 84.97705078 65.09741211 87.21118164 C65.09547852 88.01233398 65.09354492 88.81348633 65.09155273 89.63891602 C65.07930664 90.47616211 65.06706055 91.3134082 65.05444336 92.17602539 C65.05347656 93.43769531 65.05347656 93.43769531 65.05249023 94.72485352 C65.0071752 100.97329355 65.0071752 100.97329355 63.86694336 102.11352539 C61.8168149 102.21292165 59.76322944 102.24152092 57.71069336 102.24291992 C56.39262695 102.24607208 55.07456055 102.24922424 53.71655273 102.25247192 C52.26668261 102.25068215 50.81681278 102.24863119 49.36694336 102.24633789 C47.89103174 102.24701097 46.41512022 102.24798102 44.93920898 102.24923706 C41.84219307 102.25071387 38.74520594 102.24856003 35.64819336 102.24389648 C31.66985787 102.2381992 27.69158984 102.24147829 23.71325684 102.24746895 C20.66446419 102.25107502 17.61568765 102.24993576 14.56689453 102.24734116 C13.09960929 102.24667202 11.63232262 102.24749986 10.16503906 102.24982071 C8.11775743 102.25234796 6.0704707 102.24781599 4.02319336 102.24291992 C2.27232422 102.24172653 2.27232422 102.24172653 0.48608398 102.24050903 C-2.13305664 102.11352539 -2.13305664 102.11352539 -3.13305664 101.11352539 C-3.23372698 98.01381775 -3.26919964 94.93634868 -3.26245117 91.83618164 C-3.26420349 90.86228485 -3.26595581 89.88838806 -3.26776123 88.88497925 C-3.27218163 85.64864345 -3.26924109 82.4123618 -3.26586914 79.17602539 C-3.26654213 76.93782541 -3.2675121 74.69962551 -3.26876831 72.46142578 C-3.27024554 67.7637462 -3.26808993 63.06608559 -3.26342773 58.3684082 C-3.25773044 52.33191925 -3.26100931 46.29547475 -3.2670002 40.25898743 C-3.27060514 35.63520978 -3.26946753 31.01144276 -3.26687241 26.38766479 C-3.26620295 24.16120397 -3.2670322 21.93474219 -3.26935196 19.70828247 C-3.27187739 16.60245184 -3.26803944 13.49669429 -3.26245117 10.39086914 C-3.2644754 9.46096161 -3.26649963 8.53105408 -3.26858521 7.57296753 C-3.24378251 0.17264036 -3.24378251 0.17264036 0 0 Z " fill="#FEFEFE" transform="translate(1056.133056640625,642.886474609375)"/>
<path d="M0 0 C31.56703297 0 31.56703297 0 43 9 C49.68890018 16.10516221 53.13194413 26.52602913 53.375 36.1875 C52.74920714 48.68317026 49.22371436 58.65535847 39.8671875 67.2109375 C26.32046334 75.66379808 16.85632659 73 0 73 C0 48.91 0 24.82 0 0 Z " fill="#023E88" transform="translate(756,353)"/>
<path d="M0 0 C1.40282227 -0.00193359 1.40282227 -0.00193359 2.83398438 -0.00390625 C4.3102832 0.00189453 4.3102832 0.00189453 5.81640625 0.0078125 C6.79673828 0.00394531 7.77707031 0.00007812 8.78710938 -0.00390625 C9.72361328 -0.00261719 10.66011719 -0.00132812 11.625 0 C12.91942017 0.00169189 12.91942017 0.00169189 14.23999023 0.00341797 C16.37890625 0.1328125 16.37890625 0.1328125 18.37890625 1.1328125 C18.40202715 14.28430274 18.41982004 27.43578819 18.43071842 40.58729458 C18.43594781 46.69337619 18.44304645 52.79944394 18.4543457 58.90551758 C18.46517262 64.79286397 18.47118267 70.68019699 18.47378349 76.56755257 C18.4756381 78.81913527 18.47925938 81.07071719 18.48463631 83.32229424 C18.49184414 86.46414677 18.4928973 89.60594333 18.49243164 92.74780273 C18.49602692 93.68863205 18.49962219 94.62946136 18.50332642 95.59880066 C18.49295841 102.01876034 18.49295841 102.01876034 17.37890625 103.1328125 C15.75633081 103.2319782 14.12950794 103.26361027 12.50390625 103.265625 C11.5190625 103.26691406 10.53421875 103.26820313 9.51953125 103.26953125 C8.483125 103.26566406 7.44671875 103.26179687 6.37890625 103.2578125 C4.82429687 103.26361328 4.82429687 103.26361328 3.23828125 103.26953125 C2.2534375 103.26824219 1.26859375 103.26695312 0.25390625 103.265625 C-0.65617188 103.26449707 -1.56625 103.26336914 -2.50390625 103.26220703 C-4.62109375 103.1328125 -4.62109375 103.1328125 -5.62109375 102.1328125 C-5.72177792 99.00257766 -5.75723535 95.8943633 -5.75048828 92.76367188 C-5.7522406 91.78002151 -5.75399292 90.79637115 -5.75579834 89.78291321 C-5.7602188 86.51411197 -5.75727818 83.24536434 -5.75390625 79.9765625 C-5.75457923 77.71594228 -5.75554921 75.45532212 -5.75680542 73.19470215 C-5.75828266 68.44994418 -5.75612701 63.70520501 -5.75146484 58.96044922 C-5.74576755 52.86342626 -5.74904641 46.76644731 -5.75503731 40.66942596 C-5.75864223 35.99932521 -5.75750465 31.32923497 -5.75490952 26.65913391 C-5.75424005 24.41034439 -5.75506933 22.16155393 -5.75738907 19.9127655 C-5.75991446 16.77580212 -5.7560766 13.63891109 -5.75048828 10.50195312 C-5.75251251 9.56269485 -5.75453674 8.62343658 -5.75662231 7.65571594 C-5.73124262 0.00750093 -5.73124262 0.00750093 0 0 Z " fill="#FAFBFC" transform="translate(528.62109375,641.8671875)"/>
<path d="M0 0 C0.98033203 -0.01224609 1.96066406 -0.02449219 2.97070312 -0.03710938 C3.90720703 -0.03904297 4.84371094 -0.04097656 5.80859375 -0.04296875 C6.67154053 -0.04707764 7.5344873 -0.05118652 8.42358398 -0.05541992 C10.5625 0.1875 10.5625 0.1875 12.5625 2.1875 C12.80859566 4.01095009 12.80859566 4.01095009 12.80300903 6.26235962 C12.80575836 7.11493851 12.80850769 7.9675174 12.81134033 8.84593201 C12.80414978 9.78316605 12.79695923 10.72040009 12.78955078 11.68603516 C12.78984283 12.67143784 12.79013489 13.65684052 12.79043579 14.67210388 C12.78903864 17.94034528 12.77345927 21.20836076 12.7578125 24.4765625 C12.75408374 26.73814774 12.75123612 28.99973459 12.74923706 31.26132202 C12.74158981 37.22245724 12.72193194 43.18349547 12.6998291 49.14459229 C12.67939417 55.22398567 12.67024038 61.30339469 12.66015625 67.3828125 C12.63868709 79.31775102 12.604538 91.25261745 12.5625 103.1875 C8.75001574 103.21637236 4.9375593 103.23425492 1.125 103.25 C0.03638672 103.25837891 -1.05222656 103.26675781 -2.17382812 103.27539062 C-3.20830078 103.27861328 -4.24277344 103.28183594 -5.30859375 103.28515625 C-6.26693115 103.29039307 -7.22526855 103.29562988 -8.21264648 103.30102539 C-10.4375 103.1875 -10.4375 103.1875 -11.4375 102.1875 C-11.53818417 99.05726516 -11.5736416 95.9490508 -11.56689453 92.81835938 C-11.56864685 91.83470901 -11.57039917 90.85105865 -11.57220459 89.83760071 C-11.57662505 86.56879947 -11.57368443 83.30005184 -11.5703125 80.03125 C-11.57098548 77.77062978 -11.57195546 75.51000962 -11.57321167 73.24938965 C-11.57468891 68.50463168 -11.57253326 63.75989251 -11.56787109 59.01513672 C-11.5621738 52.91811376 -11.56545266 46.82113481 -11.57144356 40.72411346 C-11.57504848 36.05401271 -11.5739109 31.38392247 -11.57131577 26.71382141 C-11.5706463 24.46503189 -11.57147558 22.21624143 -11.57379532 19.967453 C-11.57632071 16.83048962 -11.57248285 13.69359859 -11.56689453 10.55664062 C-11.56891876 9.61738235 -11.57094299 8.67812408 -11.57302856 7.71040344 C-11.54155592 -1.77393295 -8.43551095 0.00552424 0 0 Z " fill="#FBFCFD" transform="translate(390.4375,641.8125)"/>
<path d="M0 0 C4.49625 -0.061875 8.9925 -0.12375 13.625 -0.1875 C15.03217285 -0.21481201 16.4393457 -0.24212402 17.88916016 -0.27026367 C19.01112793 -0.27775635 20.1330957 -0.28524902 21.2890625 -0.29296875 C23.00150146 -0.31653442 23.00150146 -0.31653442 24.74853516 -0.34057617 C29.74261606 0.18253112 32.96315102 1.85105924 36.3125 5.5625 C39.12679159 9.62758785 39.40924479 12.00721358 39 17 C36.85552512 22.27183409 34.84729832 24.70933121 29.57226562 27.20825195 C24.19455071 28.8635224 18.56795248 28.40168241 13 28.25 C8.71 28.1675 4.42 28.085 0 28 C0 18.76 0 9.52 0 0 Z " fill="#013B85" transform="translate(356,399)"/>
<path d="M0 0 C7.59 0 15.18 0 23 0 C23 10.13195435 23 10.13195435 21.828125 14.70703125 C21.57764404 15.70081787 21.32716309 16.69460449 21.0690918 17.71850586 C20.7987915 18.73952393 20.52849121 19.76054199 20.25 20.8125 C19.97776611 21.86896729 19.70553223 22.92543457 19.42504883 24.01391602 C14.27289304 43.72710696 14.27289304 43.72710696 12 46 C9.48863896 46.09975032 7.01096585 46.13882183 4.5 46.125 C3.79746094 46.12886719 3.09492187 46.13273438 2.37109375 46.13671875 C-2.87338622 46.12661378 -2.87338622 46.12661378 -4 45 C-4.57502457 36.32821262 -3.5895535 27.72358741 -2.5625 19.125 C-2.42779297 17.94164062 -2.29308594 16.75828125 -2.15429688 15.5390625 C-1.5524149 10.32470941 -0.863539 5.18123403 0 0 Z " fill="#FAFBFD" transform="translate(1003,578)"/>
<path d="M0 0 C3.980625 -0.061875 7.96125 -0.12375 12.0625 -0.1875 C13.92467163 -0.22846802 13.92467163 -0.22846802 15.82446289 -0.27026367 C23.31795083 -0.32654199 28.4923445 0.12192369 34.4375 5 C36.83312475 9.59959952 36.74555727 13.92275502 36 19 C34.00912717 22.98174566 31.83925564 25.72044197 28 28 C24.74838194 29.04221973 21.76136519 29.11575194 18.359375 29.09765625 C17.39483398 29.09515869 16.43029297 29.09266113 15.43652344 29.09008789 C13.61169434 29.07643188 13.61169434 29.07643188 11.75 29.0625 C7.8725 29.041875 3.995 29.02125 0 29 C0 19.43 0 9.86 0 0 Z " fill="#043D87" transform="translate(599,506)"/>
<path d="M0 0 C3.815625 -0.061875 7.63125 -0.12375 11.5625 -0.1875 C13.34636108 -0.22846802 13.34636108 -0.22846802 15.16625977 -0.27026367 C22.10851546 -0.32461419 27.43249304 0.00789739 32.9375 4.625 C34.61919806 8.38408979 34.52101127 11.95492641 34 16 C32.70748373 19.30309713 31.57520308 20.59677487 28.6875 22.62109375 C23.1911229 24.67641273 17.93786614 24.31543554 12.125 24.1875 C10.9596875 24.17396484 9.794375 24.16042969 8.59375 24.14648438 C5.72896707 24.11126163 2.86442322 24.05745871 0 24 C0 16.08 0 8.16 0 0 Z " fill="#003A85" transform="translate(356,352)"/>
<path d="M0 0 C2.98560076 2.98560076 5.01780635 5.30024617 7.25 8.75 C7.77078125 9.54921875 8.2915625 10.3484375 8.828125 11.171875 C9.21484375 11.77515625 9.6015625 12.3784375 10 13 C9.67 13.66 9.34 14.32 9 15 C7.02 12.36 5.04 9.72 3 7 C2.98018066 8.62010986 2.96036133 10.24021973 2.93994141 11.90942383 C2.86398631 17.90860795 2.7752533 23.90754631 2.68261719 29.90649414 C2.64428568 32.50507767 2.60944026 35.10371502 2.578125 37.70239258 C2.53256534 41.43330143 2.47455538 45.1638384 2.4140625 48.89453125 C2.39673569 50.64308159 2.39673569 50.64308159 2.37905884 52.42695618 C2.35918915 53.50785019 2.33931946 54.5887442 2.31884766 55.70239258 C2.30552399 56.65503494 2.29220032 57.60767731 2.2784729 58.58918762 C2 61 2 61 0 64 C-2.01538086 64.37231445 -2.01538086 64.37231445 -4.46484375 64.36328125 C-5.34720703 64.36263672 -6.22957031 64.36199219 -7.13867188 64.36132812 C-8.5240918 64.3371582 -8.5240918 64.3371582 -9.9375 64.3125 C-10.85724609 64.31572266 -11.77699219 64.31894531 -12.72460938 64.32226562 C-19.59933901 64.26710733 -19.59933901 64.26710733 -23 62 C-15.41 62 -7.82 62 0 62 C0 41.54 0 21.08 0 0 Z " fill="#022A7C" transform="translate(592,683)"/>
<path d="M0 0 C0.495 1.485 0.495 1.485 1 3 C-2.69158318 5.46105545 -5.46623554 5.25575793 -9.73046875 5.1953125 C-10.48088943 5.1924826 -11.23131012 5.18965271 -12.00447083 5.18673706 C-14.39897675 5.17555062 -16.79310731 5.15044928 -19.1875 5.125 C-20.81184355 5.11496819 -22.43619297 5.10584269 -24.06054688 5.09765625 C-28.0406252 5.0773186 -32.01989291 5.03816832 -36 5 C-36 10.94 -36 16.88 -36 23 C-22.14 23 -8.28 23 6 23 C6 23.33 6 23.66 6 24 C-8.52 24 -23.04 24 -38 24 C-38 17.07 -38 10.14 -38 3 C-25.79 2.67 -13.58 2.34 -1 2 C-0.67 1.34 -0.34 0.68 0 0 Z " fill="#002579" transform="translate(1029,700)"/>
<path d="M0 0 C0.33 0 0.66 0 1 0 C1 20.79 1 41.58 1 63 C-2 60 -2 60 -2.32952881 57.45079041 C-2.30811829 56.43312088 -2.28670776 55.41545135 -2.26464844 54.36694336 C-2.24762878 53.21242172 -2.23060913 52.05790009 -2.21307373 50.86839294 C-2.17885315 49.62147171 -2.14463257 48.37455048 -2.109375 47.08984375 C-2.08530579 45.81146133 -2.06123657 44.53307892 -2.03643799 43.21595764 C-1.98273461 40.51129476 -1.92340399 37.80750295 -1.85400391 35.10327148 C-1.76510679 31.63424742 -1.69366377 28.16515613 -1.62871933 24.69560909 C-1.56599429 21.38938372 -1.4940713 18.08337404 -1.421875 14.77734375 C-1.39575134 13.52839828 -1.36962769 12.27945282 -1.3427124 10.99266052 C-1.31308411 9.84129105 -1.28345581 8.68992157 -1.25292969 7.50366211 C-1.22833679 6.48678818 -1.2037439 5.46991425 -1.17840576 4.42222595 C-1 2 -1 2 0 0 Z " fill="#00297B" transform="translate(633,644)"/>
<path d="M0 0 C0.33 0 0.66 0 1 0 C1 18.81 1 37.62 1 57 C0.01 56.01 -0.98 55.02 -2 54 C-2 53.34 -2 52.68 -2 52 C-1.34 52 -0.68 52 0 52 C0 34.84 0 17.68 0 0 Z " fill="#093881" transform="translate(633,650)"/>
<path d="M0 0 C0.66 0 1.32 0 2 0 C4.29612756 9.41002278 4.29612756 9.41002278 4 14 C2.35 13.67 0.7 13.34 -1 13 C-1.33 14.65 -1.66 16.3 -2 18 C-2.33 18 -2.66 18 -3 18 C-2.41509121 11.85845775 -1.45933748 5.99320151 0 0 Z " fill="#052F7E" transform="translate(882,678)"/>
<path d="M0 0 C1.74312521 4.11629567 0.06660828 7.55091348 -1.375 11.5 C-3.42635281 17.17773646 -3.42635281 17.17773646 -5 23 C-5.66 22.67 -6.32 22.34 -7 22 C-5.0827282 14.49068545 -2.75950985 7.24196241 0 0 Z " fill="#0F3280" transform="translate(494,693)"/>
<path d="M0 0 C1.44715727 3.87186448 0.5441918 6.8232328 -0.4375 10.75 C-0.72496094 11.92046875 -1.01242187 13.0909375 -1.30859375 14.296875 C-1.53675781 15.18890625 -1.76492188 16.0809375 -2 17 C-4.0812357 13.57208238 -4.0812357 13.57208238 -3.72265625 11.046875 C-3.48417969 10.37140625 -3.24570312 9.6959375 -3 9 C-2.75121094 8.22140625 -2.50242187 7.4428125 -2.24609375 6.640625 C-1.97925781 5.85171875 -1.71242188 5.0628125 -1.4375 4.25 C-1.16808594 3.45078125 -0.89867187 2.6515625 -0.62109375 1.828125 C-0.41613281 1.22484375 -0.21117187 0.6215625 0 0 Z " fill="#071D70" transform="translate(916,698)"/>
<path d="M0 0 C1.3805087 3.76668598 0.59568159 6.44789173 -0.4375 10.25 C-0.72496094 11.32765625 -1.01242187 12.4053125 -1.30859375 13.515625 C-1.53675781 14.33546875 -1.76492188 15.1553125 -2 16 C-4.1519437 12.77208445 -4.20086443 11.71599191 -4 8 C-3.34 7.67 -2.68 7.34 -2 7 C-1.26924352 4.6859378 -0.59861742 2.35171131 0 0 Z " fill="#031E71" transform="translate(856,698)"/>
<path d="M0 0 C0.25523437 0.57234375 0.51046875 1.1446875 0.7734375 1.734375 C2.13087159 4.24173733 3.71974104 6.1330456 5.625 8.25 C6.25664063 8.95640625 6.88828125 9.6628125 7.5390625 10.390625 C8.02117188 10.92171875 8.50328125 11.4528125 9 12 C8.34 12.66 7.68 13.32 7 14 C5.84604289 12.58994275 4.70212534 11.17166542 3.5625 9.75 C2.92441406 8.96109375 2.28632812 8.1721875 1.62890625 7.359375 C0.09273722 5.13432442 -0.67583689 3.66403135 -1 1 C-0.67 0.67 -0.34 0.34 0 0 Z " fill="#103280" transform="translate(805,582)"/>
<path d="M0 0 C0.33 0 0.66 0 1 0 C1.08131463 1.43655854 1.13933559 2.8744483 1.1875 4.3125 C1.23970703 5.51326172 1.23970703 5.51326172 1.29296875 6.73828125 C0.93801608 9.47851584 0.10633718 10.29171079 -2 12 C-1.85831863 10.56208484 -1.71148957 9.1246763 -1.5625 7.6875 C-1.48128906 6.88699219 -1.40007813 6.08648438 -1.31640625 5.26171875 C-1 3 -1 3 0 0 Z " fill="#042778" transform="translate(874,712)"/>
<path d="M0 0 C0.66 0 1.32 0 2 0 C2.33 2.31 2.66 4.62 3 7 C1.68 7 0.36 7 -1 7 C-0.67 4.69 -0.34 2.38 0 0 Z " fill="#1F4086" transform="translate(882,678)"/>
</svg>
